<?xml version="1.0" encoding="utf-8" standalone="no"?>
<!DOCTYPE svg PUBLIC "-//W3C//DTD SVG 1.1//EN"
  "http://www.w3.org/Graphics/SVG/1.1/DTD/svg11.dtd">
<svg height="345.6pt" version="1.1" viewBox="0 0 460.8 345.6" width="460.8pt" xmlns="http://www.w3.org/2000/svg" xmlns:xlink="http://www.w3.org/1999/xlink">
 <metadata>
  <rdf:RDF xmlns:cc="http://creativecommons.org/ns#" xmlns:dc="http://purl.org/dc/elements/1.1/" xmlns:rdf="http://www.w3.org/1999/02/22-rdf-syntax-ns#">
   <cc:Work>
    <dc:type rdf:resource="http://purl.org/dc/dcmitype/StillImage"/>
    <dc:date>2021-10-26T18:20:23.058510</dc:date>
    <dc:format>image/svg+xml</dc:format>
    <dc:creator>
     <cc:Agent>
      <dc:title>Matplotlib v3.4.3, https://matplotlib.org/</dc:title>
     </cc:Agent>
    </dc:creator>
   </cc:Work>
  </rdf:RDF>
 </metadata>
 <defs>
  <style type="text/css">*{stroke-linecap:butt;stroke-linejoin:round;}</style>
 </defs>
 <g id="figure_1">
  <g id="patch_1">
   <path d="M 0 345.6 
L 460.8 345.6 
L 460.8 0 
L 0 0 
z
" style="fill:#ffffff;"/>
  </g>
  <g id="axes_1">
   <g id="patch_2">
    <path d="M 57.6 307.584 
L 414.72 307.584 
L 414.72 41.472 
L 57.6 41.472 
z
" style="fill:#ffffff;"/>
   </g>
   <g id="matplotlib.axis_1">
    <g id="xtick_1">
     <g id="line2d_1">
      <path clip-path="url(#pa6790eb53e)" d="M 57.6 307.584 
L 57.6 41.472 
" style="fill:none;stroke:#ffff00;stroke-linecap:square;"/>
     </g>
     <g id="line2d_2">
      <defs>
       <path d="M 0 0 
L 0 3.5 
" id="m6a81e4a919" style="stroke:#000000;stroke-width:0.8;"/>
      </defs>
      <g>
       <use style="stroke:#000000;stroke-width:0.8;" x="57.6" xlink:href="#m6a81e4a919" y="307.584"/>
      </g>
     </g>
     <g id="text_1">
      <!-- 0 -->
      <g transform="translate(54.41875 322.182437)scale(0.1 -0.1)">
       <defs>
        <path d="M 2034 4250 
Q 1547 4250 1301 3770 
Q 1056 3291 1056 2328 
Q 1056 1369 1301 889 
Q 1547 409 2034 409 
Q 2525 409 2770 889 
Q 3016 1369 3016 2328 
Q 3016 3291 2770 3770 
Q 2525 4250 2034 4250 
z
M 2034 4750 
Q 2819 4750 3233 4129 
Q 3647 3509 3647 2328 
Q 3647 1150 3233 529 
Q 2819 -91 2034 -91 
Q 1250 -91 836 529 
Q 422 1150 422 2328 
Q 422 3509 836 4129 
Q 1250 4750 2034 4750 
z
" id="DejaVuSans-30" transform="scale(0.015625)"/>
       </defs>
       <use xlink:href="#DejaVuSans-30"/>
      </g>
     </g>
    </g>
    <g id="xtick_2">
     <g id="line2d_3">
      <path clip-path="url(#pa6790eb53e)" d="M 110.161098 307.584 
L 110.161098 41.472 
" style="fill:none;stroke:#ffff00;stroke-linecap:square;"/>
     </g>
     <g id="line2d_4">
      <g>
       <use style="stroke:#000000;stroke-width:0.8;" x="110.161098" xlink:href="#m6a81e4a919" y="307.584"/>
      </g>
     </g>
     <g id="text_2">
      <!-- 20 -->
      <g transform="translate(103.798598 322.182437)scale(0.1 -0.1)">
       <defs>
        <path d="M 1228 531 
L 3431 531 
L 3431 0 
L 469 0 
L 469 531 
Q 828 903 1448 1529 
Q 2069 2156 2228 2338 
Q 2531 2678 2651 2914 
Q 2772 3150 2772 3378 
Q 2772 3750 2511 3984 
Q 2250 4219 1831 4219 
Q 1534 4219 1204 4116 
Q 875 4013 500 3803 
L 500 4441 
Q 881 4594 1212 4672 
Q 1544 4750 1819 4750 
Q 2544 4750 2975 4387 
Q 3406 4025 3406 3419 
Q 3406 3131 3298 2873 
Q 3191 2616 2906 2266 
Q 2828 2175 2409 1742 
Q 1991 1309 1228 531 
z
" id="DejaVuSans-32" transform="scale(0.015625)"/>
       </defs>
       <use xlink:href="#DejaVuSans-32"/>
       <use x="63.623047" xlink:href="#DejaVuSans-30"/>
      </g>
     </g>
    </g>
    <g id="xtick_3">
     <g id="line2d_5">
      <path clip-path="url(#pa6790eb53e)" d="M 162.722196 307.584 
L 162.722196 41.472 
" style="fill:none;stroke:#ffff00;stroke-linecap:square;"/>
     </g>
     <g id="line2d_6">
      <g>
       <use style="stroke:#000000;stroke-width:0.8;" x="162.722196" xlink:href="#m6a81e4a919" y="307.584"/>
      </g>
     </g>
     <g id="text_3">
      <!-- 40 -->
      <g transform="translate(156.359696 322.182437)scale(0.1 -0.1)">
       <defs>
        <path d="M 2419 4116 
L 825 1625 
L 2419 1625 
L 2419 4116 
z
M 2253 4666 
L 3047 4666 
L 3047 1625 
L 3713 1625 
L 3713 1100 
L 3047 1100 
L 3047 0 
L 2419 0 
L 2419 1100 
L 313 1100 
L 313 1709 
L 2253 4666 
z
" id="DejaVuSans-34" transform="scale(0.015625)"/>
       </defs>
       <use xlink:href="#DejaVuSans-34"/>
       <use x="63.623047" xlink:href="#DejaVuSans-30"/>
      </g>
     </g>
    </g>
    <g id="xtick_4">
     <g id="line2d_7">
      <path clip-path="url(#pa6790eb53e)" d="M 215.283293 307.584 
L 215.283293 41.472 
" style="fill:none;stroke:#ffff00;stroke-linecap:square;"/>
     </g>
     <g id="line2d_8">
      <g>
       <use style="stroke:#000000;stroke-width:0.8;" x="215.283293" xlink:href="#m6a81e4a919" y="307.584"/>
      </g>
     </g>
     <g id="text_4">
      <!-- 60 -->
      <g transform="translate(208.920793 322.182437)scale(0.1 -0.1)">
       <defs>
        <path d="M 2113 2584 
Q 1688 2584 1439 2293 
Q 1191 2003 1191 1497 
Q 1191 994 1439 701 
Q 1688 409 2113 409 
Q 2538 409 2786 701 
Q 3034 994 3034 1497 
Q 3034 2003 2786 2293 
Q 2538 2584 2113 2584 
z
M 3366 4563 
L 3366 3988 
Q 3128 4100 2886 4159 
Q 2644 4219 2406 4219 
Q 1781 4219 1451 3797 
Q 1122 3375 1075 2522 
Q 1259 2794 1537 2939 
Q 1816 3084 2150 3084 
Q 2853 3084 3261 2657 
Q 3669 2231 3669 1497 
Q 3669 778 3244 343 
Q 2819 -91 2113 -91 
Q 1303 -91 875 529 
Q 447 1150 447 2328 
Q 447 3434 972 4092 
Q 1497 4750 2381 4750 
Q 2619 4750 2861 4703 
Q 3103 4656 3366 4563 
z
" id="DejaVuSans-36" transform="scale(0.015625)"/>
       </defs>
       <use xlink:href="#DejaVuSans-36"/>
       <use x="63.623047" xlink:href="#DejaVuSans-30"/>
      </g>
     </g>
    </g>
    <g id="xtick_5">
     <g id="line2d_9">
      <path clip-path="url(#pa6790eb53e)" d="M 267.844391 307.584 
L 267.844391 41.472 
" style="fill:none;stroke:#ffff00;stroke-linecap:square;"/>
     </g>
     <g id="line2d_10">
      <g>
       <use style="stroke:#000000;stroke-width:0.8;" x="267.844391" xlink:href="#m6a81e4a919" y="307.584"/>
      </g>
     </g>
     <g id="text_5">
      <!-- 80 -->
      <g transform="translate(261.481891 322.182437)scale(0.1 -0.1)">
       <defs>
        <path d="M 2034 2216 
Q 1584 2216 1326 1975 
Q 1069 1734 1069 1313 
Q 1069 891 1326 650 
Q 1584 409 2034 409 
Q 2484 409 2743 651 
Q 3003 894 3003 1313 
Q 3003 1734 2745 1975 
Q 2488 2216 2034 2216 
z
M 1403 2484 
Q 997 2584 770 2862 
Q 544 3141 544 3541 
Q 544 4100 942 4425 
Q 1341 4750 2034 4750 
Q 2731 4750 3128 4425 
Q 3525 4100 3525 3541 
Q 3525 3141 3298 2862 
Q 3072 2584 2669 2484 
Q 3125 2378 3379 2068 
Q 3634 1759 3634 1313 
Q 3634 634 3220 271 
Q 2806 -91 2034 -91 
Q 1263 -91 848 271 
Q 434 634 434 1313 
Q 434 1759 690 2068 
Q 947 2378 1403 2484 
z
M 1172 3481 
Q 1172 3119 1398 2916 
Q 1625 2713 2034 2713 
Q 2441 2713 2670 2916 
Q 2900 3119 2900 3481 
Q 2900 3844 2670 4047 
Q 2441 4250 2034 4250 
Q 1625 4250 1398 4047 
Q 1172 3844 1172 3481 
z
" id="DejaVuSans-38" transform="scale(0.015625)"/>
       </defs>
       <use xlink:href="#DejaVuSans-38"/>
       <use x="63.623047" xlink:href="#DejaVuSans-30"/>
      </g>
     </g>
    </g>
    <g id="xtick_6">
     <g id="line2d_11">
      <path clip-path="url(#pa6790eb53e)" d="M 320.405489 307.584 
L 320.405489 41.472 
" style="fill:none;stroke:#ffff00;stroke-linecap:square;"/>
     </g>
     <g id="line2d_12">
      <g>
       <use style="stroke:#000000;stroke-width:0.8;" x="320.405489" xlink:href="#m6a81e4a919" y="307.584"/>
      </g>
     </g>
     <g id="text_6">
      <!-- 100 -->
      <g transform="translate(310.861739 322.182437)scale(0.1 -0.1)">
       <defs>
        <path d="M 794 531 
L 1825 531 
L 1825 4091 
L 703 3866 
L 703 4441 
L 1819 4666 
L 2450 4666 
L 2450 531 
L 3481 531 
L 3481 0 
L 794 0 
L 794 531 
z
" id="DejaVuSans-31" transform="scale(0.015625)"/>
       </defs>
       <use xlink:href="#DejaVuSans-31"/>
       <use x="63.623047" xlink:href="#DejaVuSans-30"/>
       <use x="127.246094" xlink:href="#DejaVuSans-30"/>
      </g>
     </g>
    </g>
    <g id="xtick_7">
     <g id="line2d_13">
      <path clip-path="url(#pa6790eb53e)" d="M 372.966587 307.584 
L 372.966587 41.472 
" style="fill:none;stroke:#ffff00;stroke-linecap:square;"/>
     </g>
     <g id="line2d_14">
      <g>
       <use style="stroke:#000000;stroke-width:0.8;" x="372.966587" xlink:href="#m6a81e4a919" y="307.584"/>
      </g>
     </g>
     <g id="text_7">
      <!-- 120 -->
      <g transform="translate(363.422837 322.182437)scale(0.1 -0.1)">
       <use xlink:href="#DejaVuSans-31"/>
       <use x="63.623047" xlink:href="#DejaVuSans-32"/>
       <use x="127.246094" xlink:href="#DejaVuSans-30"/>
      </g>
     </g>
    </g>
    <g id="xtick_8">
     <g id="line2d_15">
      <path clip-path="url(#pa6790eb53e)" d="M 70.740274 307.584 
L 70.740274 41.472 
" style="fill:none;stroke:#ffff00;stroke-dasharray:1.85,0.8;stroke-dashoffset:0;stroke-width:0.5;"/>
     </g>
     <g id="line2d_16">
      <defs>
       <path d="M 0 0 
L 0 2 
" id="mb3e4ae6711" style="stroke:#000000;stroke-width:0.6;"/>
      </defs>
      <g>
       <use style="stroke:#000000;stroke-width:0.6;" x="70.740274" xlink:href="#mb3e4ae6711" y="307.584"/>
      </g>
     </g>
    </g>
    <g id="xtick_9">
     <g id="line2d_17">
      <path clip-path="url(#pa6790eb53e)" d="M 83.880549 307.584 
L 83.880549 41.472 
" style="fill:none;stroke:#ffff00;stroke-dasharray:1.85,0.8;stroke-dashoffset:0;stroke-width:0.5;"/>
     </g>
     <g id="line2d_18">
      <g>
       <use style="stroke:#000000;stroke-width:0.6;" x="83.880549" xlink:href="#mb3e4ae6711" y="307.584"/>
      </g>
     </g>
    </g>
    <g id="xtick_10">
     <g id="line2d_19">
      <path clip-path="url(#pa6790eb53e)" d="M 97.020823 307.584 
L 97.020823 41.472 
" style="fill:none;stroke:#ffff00;stroke-dasharray:1.85,0.8;stroke-dashoffset:0;stroke-width:0.5;"/>
     </g>
     <g id="line2d_20">
      <g>
       <use style="stroke:#000000;stroke-width:0.6;" x="97.020823" xlink:href="#mb3e4ae6711" y="307.584"/>
      </g>
     </g>
    </g>
    <g id="xtick_11">
     <g id="line2d_21">
      <path clip-path="url(#pa6790eb53e)" d="M 123.301372 307.584 
L 123.301372 41.472 
" style="fill:none;stroke:#ffff00;stroke-dasharray:1.85,0.8;stroke-dashoffset:0;stroke-width:0.5;"/>
     </g>
     <g id="line2d_22">
      <g>
       <use style="stroke:#000000;stroke-width:0.6;" x="123.301372" xlink:href="#mb3e4ae6711" y="307.584"/>
      </g>
     </g>
    </g>
    <g id="xtick_12">
     <g id="line2d_23">
      <path clip-path="url(#pa6790eb53e)" d="M 136.441647 307.584 
L 136.441647 41.472 
" style="fill:none;stroke:#ffff00;stroke-dasharray:1.85,0.8;stroke-dashoffset:0;stroke-width:0.5;"/>
     </g>
     <g id="line2d_24">
      <g>
       <use style="stroke:#000000;stroke-width:0.6;" x="136.441647" xlink:href="#mb3e4ae6711" y="307.584"/>
      </g>
     </g>
    </g>
    <g id="xtick_13">
     <g id="line2d_25">
      <path clip-path="url(#pa6790eb53e)" d="M 149.581921 307.584 
L 149.581921 41.472 
" style="fill:none;stroke:#ffff00;stroke-dasharray:1.85,0.8;stroke-dashoffset:0;stroke-width:0.5;"/>
     </g>
     <g id="line2d_26">
      <g>
       <use style="stroke:#000000;stroke-width:0.6;" x="149.581921" xlink:href="#mb3e4ae6711" y="307.584"/>
      </g>
     </g>
    </g>
    <g id="xtick_14">
     <g id="line2d_27">
      <path clip-path="url(#pa6790eb53e)" d="M 175.86247 307.584 
L 175.86247 41.472 
" style="fill:none;stroke:#ffff00;stroke-dasharray:1.85,0.8;stroke-dashoffset:0;stroke-width:0.5;"/>
     </g>
     <g id="line2d_28">
      <g>
       <use style="stroke:#000000;stroke-width:0.6;" x="175.86247" xlink:href="#mb3e4ae6711" y="307.584"/>
      </g>
     </g>
    </g>
    <g id="xtick_15">
     <g id="line2d_29">
      <path clip-path="url(#pa6790eb53e)" d="M 189.002744 307.584 
L 189.002744 41.472 
" style="fill:none;stroke:#ffff00;stroke-dasharray:1.85,0.8;stroke-dashoffset:0;stroke-width:0.5;"/>
     </g>
     <g id="line2d_30">
      <g>
       <use style="stroke:#000000;stroke-width:0.6;" x="189.002744" xlink:href="#mb3e4ae6711" y="307.584"/>
      </g>
     </g>
    </g>
    <g id="xtick_16">
     <g id="line2d_31">
      <path clip-path="url(#pa6790eb53e)" d="M 202.143019 307.584 
L 202.143019 41.472 
" style="fill:none;stroke:#ffff00;stroke-dasharray:1.85,0.8;stroke-dashoffset:0;stroke-width:0.5;"/>
     </g>
     <g id="line2d_32">
      <g>
       <use style="stroke:#000000;stroke-width:0.6;" x="202.143019" xlink:href="#mb3e4ae6711" y="307.584"/>
      </g>
     </g>
    </g>
    <g id="xtick_17">
     <g id="line2d_33">
      <path clip-path="url(#pa6790eb53e)" d="M 228.423568 307.584 
L 228.423568 41.472 
" style="fill:none;stroke:#ffff00;stroke-dasharray:1.85,0.8;stroke-dashoffset:0;stroke-width:0.5;"/>
     </g>
     <g id="line2d_34">
      <g>
       <use style="stroke:#000000;stroke-width:0.6;" x="228.423568" xlink:href="#mb3e4ae6711" y="307.584"/>
      </g>
     </g>
    </g>
    <g id="xtick_18">
     <g id="line2d_35">
      <path clip-path="url(#pa6790eb53e)" d="M 241.563842 307.584 
L 241.563842 41.472 
" style="fill:none;stroke:#ffff00;stroke-dasharray:1.85,0.8;stroke-dashoffset:0;stroke-width:0.5;"/>
     </g>
     <g id="line2d_36">
      <g>
       <use style="stroke:#000000;stroke-width:0.6;" x="241.563842" xlink:href="#mb3e4ae6711" y="307.584"/>
      </g>
     </g>
    </g>
    <g id="xtick_19">
     <g id="line2d_37">
      <path clip-path="url(#pa6790eb53e)" d="M 254.704117 307.584 
L 254.704117 41.472 
" style="fill:none;stroke:#ffff00;stroke-dasharray:1.85,0.8;stroke-dashoffset:0;stroke-width:0.5;"/>
     </g>
     <g id="line2d_38">
      <g>
       <use style="stroke:#000000;stroke-width:0.6;" x="254.704117" xlink:href="#mb3e4ae6711" y="307.584"/>
      </g>
     </g>
    </g>
    <g id="xtick_20">
     <g id="line2d_39">
      <path clip-path="url(#pa6790eb53e)" d="M 280.984666 307.584 
L 280.984666 41.472 
" style="fill:none;stroke:#ffff00;stroke-dasharray:1.85,0.8;stroke-dashoffset:0;stroke-width:0.5;"/>
     </g>
     <g id="line2d_40">
      <g>
       <use style="stroke:#000000;stroke-width:0.6;" x="280.984666" xlink:href="#mb3e4ae6711" y="307.584"/>
      </g>
     </g>
    </g>
    <g id="xtick_21">
     <g id="line2d_41">
      <path clip-path="url(#pa6790eb53e)" d="M 294.12494 307.584 
L 294.12494 41.472 
" style="fill:none;stroke:#ffff00;stroke-dasharray:1.85,0.8;stroke-dashoffset:0;stroke-width:0.5;"/>
     </g>
     <g id="line2d_42">
      <g>
       <use style="stroke:#000000;stroke-width:0.6;" x="294.12494" xlink:href="#mb3e4ae6711" y="307.584"/>
      </g>
     </g>
    </g>
    <g id="xtick_22">
     <g id="line2d_43">
      <path clip-path="url(#pa6790eb53e)" d="M 307.265215 307.584 
L 307.265215 41.472 
" style="fill:none;stroke:#ffff00;stroke-dasharray:1.85,0.8;stroke-dashoffset:0;stroke-width:0.5;"/>
     </g>
     <g id="line2d_44">
      <g>
       <use style="stroke:#000000;stroke-width:0.6;" x="307.265215" xlink:href="#mb3e4ae6711" y="307.584"/>
      </g>
     </g>
    </g>
    <g id="xtick_23">
     <g id="line2d_45">
      <path clip-path="url(#pa6790eb53e)" d="M 333.545763 307.584 
L 333.545763 41.472 
" style="fill:none;stroke:#ffff00;stroke-dasharray:1.85,0.8;stroke-dashoffset:0;stroke-width:0.5;"/>
     </g>
     <g id="line2d_46">
      <g>
       <use style="stroke:#000000;stroke-width:0.6;" x="333.545763" xlink:href="#mb3e4ae6711" y="307.584"/>
      </g>
     </g>
    </g>
    <g id="xtick_24">
     <g id="line2d_47">
      <path clip-path="url(#pa6790eb53e)" d="M 346.686038 307.584 
L 346.686038 41.472 
" style="fill:none;stroke:#ffff00;stroke-dasharray:1.85,0.8;stroke-dashoffset:0;stroke-width:0.5;"/>
     </g>
     <g id="line2d_48">
      <g>
       <use style="stroke:#000000;stroke-width:0.6;" x="346.686038" xlink:href="#mb3e4ae6711" y="307.584"/>
      </g>
     </g>
    </g>
    <g id="xtick_25">
     <g id="line2d_49">
      <path clip-path="url(#pa6790eb53e)" d="M 359.826312 307.584 
L 359.826312 41.472 
" style="fill:none;stroke:#ffff00;stroke-dasharray:1.85,0.8;stroke-dashoffset:0;stroke-width:0.5;"/>
     </g>
     <g id="line2d_50">
      <g>
       <use style="stroke:#000000;stroke-width:0.6;" x="359.826312" xlink:href="#mb3e4ae6711" y="307.584"/>
      </g>
     </g>
    </g>
    <g id="xtick_26">
     <g id="line2d_51">
      <path clip-path="url(#pa6790eb53e)" d="M 386.106861 307.584 
L 386.106861 41.472 
" style="fill:none;stroke:#ffff00;stroke-dasharray:1.85,0.8;stroke-dashoffset:0;stroke-width:0.5;"/>
     </g>
     <g id="line2d_52">
      <g>
       <use style="stroke:#000000;stroke-width:0.6;" x="386.106861" xlink:href="#mb3e4ae6711" y="307.584"/>
      </g>
     </g>
    </g>
    <g id="xtick_27">
     <g id="line2d_53">
      <path clip-path="url(#pa6790eb53e)" d="M 399.247136 307.584 
L 399.247136 41.472 
" style="fill:none;stroke:#ffff00;stroke-dasharray:1.85,0.8;stroke-dashoffset:0;stroke-width:0.5;"/>
     </g>
     <g id="line2d_54">
      <g>
       <use style="stroke:#000000;stroke-width:0.6;" x="399.247136" xlink:href="#mb3e4ae6711" y="307.584"/>
      </g>
     </g>
    </g>
    <g id="xtick_28">
     <g id="line2d_55">
      <path clip-path="url(#pa6790eb53e)" d="M 412.38741 307.584 
L 412.38741 41.472 
" style="fill:none;stroke:#ffff00;stroke-dasharray:1.85,0.8;stroke-dashoffset:0;stroke-width:0.5;"/>
     </g>
     <g id="line2d_56">
      <g>
       <use style="stroke:#000000;stroke-width:0.6;" x="412.38741" xlink:href="#mb3e4ae6711" y="307.584"/>
      </g>
     </g>
    </g>
    <g id="text_8">
     <!-- Время, с -->
     <g transform="translate(213.771719 335.860562)scale(0.1 -0.1)">
      <defs>
       <path d="M 1259 2228 
L 1259 519 
L 2272 519 
Q 2781 519 3026 730 
Q 3272 941 3272 1375 
Q 3272 1813 3026 2020 
Q 2781 2228 2272 2228 
L 1259 2228 
z
M 1259 4147 
L 1259 2741 
L 2194 2741 
Q 2656 2741 2882 2914 
Q 3109 3088 3109 3444 
Q 3109 3797 2882 3972 
Q 2656 4147 2194 4147 
L 1259 4147 
z
M 628 4666 
L 2241 4666 
Q 2963 4666 3353 4366 
Q 3744 4066 3744 3513 
Q 3744 3084 3544 2831 
Q 3344 2578 2956 2516 
Q 3422 2416 3680 2098 
Q 3938 1781 3938 1306 
Q 3938 681 3513 340 
Q 3088 0 2303 0 
L 628 0 
L 628 4666 
z
" id="DejaVuSans-412" transform="scale(0.015625)"/>
       <path d="M 1159 525 
L 1159 -1331 
L 581 -1331 
L 581 3500 
L 1159 3500 
L 1159 2969 
Q 1341 3281 1617 3432 
Q 1894 3584 2278 3584 
Q 2916 3584 3314 3078 
Q 3713 2572 3713 1747 
Q 3713 922 3314 415 
Q 2916 -91 2278 -91 
Q 1894 -91 1617 61 
Q 1341 213 1159 525 
z
M 3116 1747 
Q 3116 2381 2855 2742 
Q 2594 3103 2138 3103 
Q 1681 3103 1420 2742 
Q 1159 2381 1159 1747 
Q 1159 1113 1420 752 
Q 1681 391 2138 391 
Q 2594 391 2855 752 
Q 3116 1113 3116 1747 
z
" id="DejaVuSans-440" transform="scale(0.015625)"/>
       <path d="M 3597 1894 
L 3597 1613 
L 953 1613 
Q 991 1019 1311 708 
Q 1631 397 2203 397 
Q 2534 397 2845 478 
Q 3156 559 3463 722 
L 3463 178 
Q 3153 47 2828 -22 
Q 2503 -91 2169 -91 
Q 1331 -91 842 396 
Q 353 884 353 1716 
Q 353 2575 817 3079 
Q 1281 3584 2069 3584 
Q 2775 3584 3186 3129 
Q 3597 2675 3597 1894 
z
M 3022 2063 
Q 3016 2534 2758 2815 
Q 2500 3097 2075 3097 
Q 1594 3097 1305 2825 
Q 1016 2553 972 2059 
L 3022 2063 
z
" id="DejaVuSans-435" transform="scale(0.015625)"/>
       <path d="M 581 3500 
L 1422 3500 
L 2416 1156 
L 3413 3500 
L 4247 3500 
L 4247 0 
L 3669 0 
L 3669 2950 
L 2703 672 
L 2128 672 
L 1159 2950 
L 1159 0 
L 581 0 
L 581 3500 
z
" id="DejaVuSans-43c" transform="scale(0.015625)"/>
       <path d="M 1181 2491 
Q 1181 2231 1381 2084 
Q 1581 1938 1953 1938 
L 2728 1938 
L 2728 3041 
L 1953 3041 
Q 1581 3041 1381 2897 
Q 1181 2753 1181 2491 
z
M 363 0 
L 1431 1534 
Q 1069 1616 828 1830 
Q 588 2044 588 2491 
Q 588 2997 923 3248 
Q 1259 3500 1938 3500 
L 3306 3500 
L 3306 0 
L 2728 0 
L 2728 1478 
L 2013 1478 
L 981 0 
L 363 0 
z
" id="DejaVuSans-44f" transform="scale(0.015625)"/>
       <path d="M 750 794 
L 1409 794 
L 1409 256 
L 897 -744 
L 494 -744 
L 750 256 
L 750 794 
z
" id="DejaVuSans-2c" transform="scale(0.015625)"/>
       <path id="DejaVuSans-20" transform="scale(0.015625)"/>
       <path d="M 3122 3366 
L 3122 2828 
Q 2878 2963 2633 3030 
Q 2388 3097 2138 3097 
Q 1578 3097 1268 2742 
Q 959 2388 959 1747 
Q 959 1106 1268 751 
Q 1578 397 2138 397 
Q 2388 397 2633 464 
Q 2878 531 3122 666 
L 3122 134 
Q 2881 22 2623 -34 
Q 2366 -91 2075 -91 
Q 1284 -91 818 406 
Q 353 903 353 1747 
Q 353 2603 823 3093 
Q 1294 3584 2113 3584 
Q 2378 3584 2631 3529 
Q 2884 3475 3122 3366 
z
" id="DejaVuSans-441" transform="scale(0.015625)"/>
      </defs>
      <use xlink:href="#DejaVuSans-412"/>
      <use x="68.603516" xlink:href="#DejaVuSans-440"/>
      <use x="132.080078" xlink:href="#DejaVuSans-435"/>
      <use x="193.603516" xlink:href="#DejaVuSans-43c"/>
      <use x="269.042969" xlink:href="#DejaVuSans-44f"/>
      <use x="329.199219" xlink:href="#DejaVuSans-2c"/>
      <use x="360.986328" xlink:href="#DejaVuSans-20"/>
      <use x="392.773438" xlink:href="#DejaVuSans-441"/>
     </g>
    </g>
   </g>
   <g id="matplotlib.axis_2">
    <g id="ytick_1">
     <g id="line2d_57">
      <path clip-path="url(#pa6790eb53e)" d="M 57.6 307.584 
L 414.72 307.584 
" style="fill:none;stroke:#ffff00;stroke-linecap:square;"/>
     </g>
     <g id="line2d_58">
      <defs>
       <path d="M 0 0 
L -3.5 0 
" id="ma2b18b9d2d" style="stroke:#000000;stroke-width:0.8;"/>
      </defs>
      <g>
       <use style="stroke:#000000;stroke-width:0.8;" x="57.6" xlink:href="#ma2b18b9d2d" y="307.584"/>
      </g>
     </g>
     <g id="text_9">
      <!-- 0.0 -->
      <g transform="translate(34.696875 311.383219)scale(0.1 -0.1)">
       <defs>
        <path d="M 684 794 
L 1344 794 
L 1344 0 
L 684 0 
L 684 794 
z
" id="DejaVuSans-2e" transform="scale(0.015625)"/>
       </defs>
       <use xlink:href="#DejaVuSans-30"/>
       <use x="63.623047" xlink:href="#DejaVuSans-2e"/>
       <use x="95.410156" xlink:href="#DejaVuSans-30"/>
      </g>
     </g>
    </g>
    <g id="ytick_2">
     <g id="line2d_59">
      <path clip-path="url(#pa6790eb53e)" d="M 57.6 268.728664 
L 414.72 268.728664 
" style="fill:none;stroke:#ffff00;stroke-linecap:square;"/>
     </g>
     <g id="line2d_60">
      <g>
       <use style="stroke:#000000;stroke-width:0.8;" x="57.6" xlink:href="#ma2b18b9d2d" y="268.728664"/>
      </g>
     </g>
     <g id="text_10">
      <!-- 0.5 -->
      <g transform="translate(34.696875 272.527883)scale(0.1 -0.1)">
       <defs>
        <path d="M 691 4666 
L 3169 4666 
L 3169 4134 
L 1269 4134 
L 1269 2991 
Q 1406 3038 1543 3061 
Q 1681 3084 1819 3084 
Q 2600 3084 3056 2656 
Q 3513 2228 3513 1497 
Q 3513 744 3044 326 
Q 2575 -91 1722 -91 
Q 1428 -91 1123 -41 
Q 819 9 494 109 
L 494 744 
Q 775 591 1075 516 
Q 1375 441 1709 441 
Q 2250 441 2565 725 
Q 2881 1009 2881 1497 
Q 2881 1984 2565 2268 
Q 2250 2553 1709 2553 
Q 1456 2553 1204 2497 
Q 953 2441 691 2322 
L 691 4666 
z
" id="DejaVuSans-35" transform="scale(0.015625)"/>
       </defs>
       <use xlink:href="#DejaVuSans-30"/>
       <use x="63.623047" xlink:href="#DejaVuSans-2e"/>
       <use x="95.410156" xlink:href="#DejaVuSans-35"/>
      </g>
     </g>
    </g>
    <g id="ytick_3">
     <g id="line2d_61">
      <path clip-path="url(#pa6790eb53e)" d="M 57.6 229.873328 
L 414.72 229.873328 
" style="fill:none;stroke:#ffff00;stroke-linecap:square;"/>
     </g>
     <g id="line2d_62">
      <g>
       <use style="stroke:#000000;stroke-width:0.8;" x="57.6" xlink:href="#ma2b18b9d2d" y="229.873328"/>
      </g>
     </g>
     <g id="text_11">
      <!-- 1.0 -->
      <g transform="translate(34.696875 233.672547)scale(0.1 -0.1)">
       <use xlink:href="#DejaVuSans-31"/>
       <use x="63.623047" xlink:href="#DejaVuSans-2e"/>
       <use x="95.410156" xlink:href="#DejaVuSans-30"/>
      </g>
     </g>
    </g>
    <g id="ytick_4">
     <g id="line2d_63">
      <path clip-path="url(#pa6790eb53e)" d="M 57.6 191.017992 
L 414.72 191.017992 
" style="fill:none;stroke:#ffff00;stroke-linecap:square;"/>
     </g>
     <g id="line2d_64">
      <g>
       <use style="stroke:#000000;stroke-width:0.8;" x="57.6" xlink:href="#ma2b18b9d2d" y="191.017992"/>
      </g>
     </g>
     <g id="text_12">
      <!-- 1.5 -->
      <g transform="translate(34.696875 194.817211)scale(0.1 -0.1)">
       <use xlink:href="#DejaVuSans-31"/>
       <use x="63.623047" xlink:href="#DejaVuSans-2e"/>
       <use x="95.410156" xlink:href="#DejaVuSans-35"/>
      </g>
     </g>
    </g>
    <g id="ytick_5">
     <g id="line2d_65">
      <path clip-path="url(#pa6790eb53e)" d="M 57.6 152.162656 
L 414.72 152.162656 
" style="fill:none;stroke:#ffff00;stroke-linecap:square;"/>
     </g>
     <g id="line2d_66">
      <g>
       <use style="stroke:#000000;stroke-width:0.8;" x="57.6" xlink:href="#ma2b18b9d2d" y="152.162656"/>
      </g>
     </g>
     <g id="text_13">
      <!-- 2.0 -->
      <g transform="translate(34.696875 155.961875)scale(0.1 -0.1)">
       <use xlink:href="#DejaVuSans-32"/>
       <use x="63.623047" xlink:href="#DejaVuSans-2e"/>
       <use x="95.410156" xlink:href="#DejaVuSans-30"/>
      </g>
     </g>
    </g>
    <g id="ytick_6">
     <g id="line2d_67">
      <path clip-path="url(#pa6790eb53e)" d="M 57.6 113.30732 
L 414.72 113.30732 
" style="fill:none;stroke:#ffff00;stroke-linecap:square;"/>
     </g>
     <g id="line2d_68">
      <g>
       <use style="stroke:#000000;stroke-width:0.8;" x="57.6" xlink:href="#ma2b18b9d2d" y="113.30732"/>
      </g>
     </g>
     <g id="text_14">
      <!-- 2.5 -->
      <g transform="translate(34.696875 117.106539)scale(0.1 -0.1)">
       <use xlink:href="#DejaVuSans-32"/>
       <use x="63.623047" xlink:href="#DejaVuSans-2e"/>
       <use x="95.410156" xlink:href="#DejaVuSans-35"/>
      </g>
     </g>
    </g>
    <g id="ytick_7">
     <g id="line2d_69">
      <path clip-path="url(#pa6790eb53e)" d="M 57.6 74.451984 
L 414.72 74.451984 
" style="fill:none;stroke:#ffff00;stroke-linecap:square;"/>
     </g>
     <g id="line2d_70">
      <g>
       <use style="stroke:#000000;stroke-width:0.8;" x="57.6" xlink:href="#ma2b18b9d2d" y="74.451984"/>
      </g>
     </g>
     <g id="text_15">
      <!-- 3.0 -->
      <g transform="translate(34.696875 78.251203)scale(0.1 -0.1)">
       <defs>
        <path d="M 2597 2516 
Q 3050 2419 3304 2112 
Q 3559 1806 3559 1356 
Q 3559 666 3084 287 
Q 2609 -91 1734 -91 
Q 1441 -91 1130 -33 
Q 819 25 488 141 
L 488 750 
Q 750 597 1062 519 
Q 1375 441 1716 441 
Q 2309 441 2620 675 
Q 2931 909 2931 1356 
Q 2931 1769 2642 2001 
Q 2353 2234 1838 2234 
L 1294 2234 
L 1294 2753 
L 1863 2753 
Q 2328 2753 2575 2939 
Q 2822 3125 2822 3475 
Q 2822 3834 2567 4026 
Q 2313 4219 1838 4219 
Q 1578 4219 1281 4162 
Q 984 4106 628 3988 
L 628 4550 
Q 988 4650 1302 4700 
Q 1616 4750 1894 4750 
Q 2613 4750 3031 4423 
Q 3450 4097 3450 3541 
Q 3450 3153 3228 2886 
Q 3006 2619 2597 2516 
z
" id="DejaVuSans-33" transform="scale(0.015625)"/>
       </defs>
       <use xlink:href="#DejaVuSans-33"/>
       <use x="63.623047" xlink:href="#DejaVuSans-2e"/>
       <use x="95.410156" xlink:href="#DejaVuSans-30"/>
      </g>
     </g>
    </g>
    <g id="ytick_8">
     <g id="line2d_71">
      <path clip-path="url(#pa6790eb53e)" d="M 57.6 299.812933 
L 414.72 299.812933 
" style="fill:none;stroke:#ffff00;stroke-dasharray:1.85,0.8;stroke-dashoffset:0;stroke-width:0.5;"/>
     </g>
     <g id="line2d_72">
      <defs>
       <path d="M 0 0 
L -2 0 
" id="mb03f49944e" style="stroke:#000000;stroke-width:0.6;"/>
      </defs>
      <g>
       <use style="stroke:#000000;stroke-width:0.6;" x="57.6" xlink:href="#mb03f49944e" y="299.812933"/>
      </g>
     </g>
    </g>
    <g id="ytick_9">
     <g id="line2d_73">
      <path clip-path="url(#pa6790eb53e)" d="M 57.6 292.041866 
L 414.72 292.041866 
" style="fill:none;stroke:#ffff00;stroke-dasharray:1.85,0.8;stroke-dashoffset:0;stroke-width:0.5;"/>
     </g>
     <g id="line2d_74">
      <g>
       <use style="stroke:#000000;stroke-width:0.6;" x="57.6" xlink:href="#mb03f49944e" y="292.041866"/>
      </g>
     </g>
    </g>
    <g id="ytick_10">
     <g id="line2d_75">
      <path clip-path="url(#pa6790eb53e)" d="M 57.6 284.270798 
L 414.72 284.270798 
" style="fill:none;stroke:#ffff00;stroke-dasharray:1.85,0.8;stroke-dashoffset:0;stroke-width:0.5;"/>
     </g>
     <g id="line2d_76">
      <g>
       <use style="stroke:#000000;stroke-width:0.6;" x="57.6" xlink:href="#mb03f49944e" y="284.270798"/>
      </g>
     </g>
    </g>
    <g id="ytick_11">
     <g id="line2d_77">
      <path clip-path="url(#pa6790eb53e)" d="M 57.6 276.499731 
L 414.72 276.499731 
" style="fill:none;stroke:#ffff00;stroke-dasharray:1.85,0.8;stroke-dashoffset:0;stroke-width:0.5;"/>
     </g>
     <g id="line2d_78">
      <g>
       <use style="stroke:#000000;stroke-width:0.6;" x="57.6" xlink:href="#mb03f49944e" y="276.499731"/>
      </g>
     </g>
    </g>
    <g id="ytick_12">
     <g id="line2d_79">
      <path clip-path="url(#pa6790eb53e)" d="M 57.6 260.957597 
L 414.72 260.957597 
" style="fill:none;stroke:#ffff00;stroke-dasharray:1.85,0.8;stroke-dashoffset:0;stroke-width:0.5;"/>
     </g>
     <g id="line2d_80">
      <g>
       <use style="stroke:#000000;stroke-width:0.6;" x="57.6" xlink:href="#mb03f49944e" y="260.957597"/>
      </g>
     </g>
    </g>
    <g id="ytick_13">
     <g id="line2d_81">
      <path clip-path="url(#pa6790eb53e)" d="M 57.6 253.18653 
L 414.72 253.18653 
" style="fill:none;stroke:#ffff00;stroke-dasharray:1.85,0.8;stroke-dashoffset:0;stroke-width:0.5;"/>
     </g>
     <g id="line2d_82">
      <g>
       <use style="stroke:#000000;stroke-width:0.6;" x="57.6" xlink:href="#mb03f49944e" y="253.18653"/>
      </g>
     </g>
    </g>
    <g id="ytick_14">
     <g id="line2d_83">
      <path clip-path="url(#pa6790eb53e)" d="M 57.6 245.415462 
L 414.72 245.415462 
" style="fill:none;stroke:#ffff00;stroke-dasharray:1.85,0.8;stroke-dashoffset:0;stroke-width:0.5;"/>
     </g>
     <g id="line2d_84">
      <g>
       <use style="stroke:#000000;stroke-width:0.6;" x="57.6" xlink:href="#mb03f49944e" y="245.415462"/>
      </g>
     </g>
    </g>
    <g id="ytick_15">
     <g id="line2d_85">
      <path clip-path="url(#pa6790eb53e)" d="M 57.6 237.644395 
L 414.72 237.644395 
" style="fill:none;stroke:#ffff00;stroke-dasharray:1.85,0.8;stroke-dashoffset:0;stroke-width:0.5;"/>
     </g>
     <g id="line2d_86">
      <g>
       <use style="stroke:#000000;stroke-width:0.6;" x="57.6" xlink:href="#mb03f49944e" y="237.644395"/>
      </g>
     </g>
    </g>
    <g id="ytick_16">
     <g id="line2d_87">
      <path clip-path="url(#pa6790eb53e)" d="M 57.6 222.102261 
L 414.72 222.102261 
" style="fill:none;stroke:#ffff00;stroke-dasharray:1.85,0.8;stroke-dashoffset:0;stroke-width:0.5;"/>
     </g>
     <g id="line2d_88">
      <g>
       <use style="stroke:#000000;stroke-width:0.6;" x="57.6" xlink:href="#mb03f49944e" y="222.102261"/>
      </g>
     </g>
    </g>
    <g id="ytick_17">
     <g id="line2d_89">
      <path clip-path="url(#pa6790eb53e)" d="M 57.6 214.331194 
L 414.72 214.331194 
" style="fill:none;stroke:#ffff00;stroke-dasharray:1.85,0.8;stroke-dashoffset:0;stroke-width:0.5;"/>
     </g>
     <g id="line2d_90">
      <g>
       <use style="stroke:#000000;stroke-width:0.6;" x="57.6" xlink:href="#mb03f49944e" y="214.331194"/>
      </g>
     </g>
    </g>
    <g id="ytick_18">
     <g id="line2d_91">
      <path clip-path="url(#pa6790eb53e)" d="M 57.6 206.560126 
L 414.72 206.560126 
" style="fill:none;stroke:#ffff00;stroke-dasharray:1.85,0.8;stroke-dashoffset:0;stroke-width:0.5;"/>
     </g>
     <g id="line2d_92">
      <g>
       <use style="stroke:#000000;stroke-width:0.6;" x="57.6" xlink:href="#mb03f49944e" y="206.560126"/>
      </g>
     </g>
    </g>
    <g id="ytick_19">
     <g id="line2d_93">
      <path clip-path="url(#pa6790eb53e)" d="M 57.6 198.789059 
L 414.72 198.789059 
" style="fill:none;stroke:#ffff00;stroke-dasharray:1.85,0.8;stroke-dashoffset:0;stroke-width:0.5;"/>
     </g>
     <g id="line2d_94">
      <g>
       <use style="stroke:#000000;stroke-width:0.6;" x="57.6" xlink:href="#mb03f49944e" y="198.789059"/>
      </g>
     </g>
    </g>
    <g id="ytick_20">
     <g id="line2d_95">
      <path clip-path="url(#pa6790eb53e)" d="M 57.6 183.246925 
L 414.72 183.246925 
" style="fill:none;stroke:#ffff00;stroke-dasharray:1.85,0.8;stroke-dashoffset:0;stroke-width:0.5;"/>
     </g>
     <g id="line2d_96">
      <g>
       <use style="stroke:#000000;stroke-width:0.6;" x="57.6" xlink:href="#mb03f49944e" y="183.246925"/>
      </g>
     </g>
    </g>
    <g id="ytick_21">
     <g id="line2d_97">
      <path clip-path="url(#pa6790eb53e)" d="M 57.6 175.475858 
L 414.72 175.475858 
" style="fill:none;stroke:#ffff00;stroke-dasharray:1.85,0.8;stroke-dashoffset:0;stroke-width:0.5;"/>
     </g>
     <g id="line2d_98">
      <g>
       <use style="stroke:#000000;stroke-width:0.6;" x="57.6" xlink:href="#mb03f49944e" y="175.475858"/>
      </g>
     </g>
    </g>
    <g id="ytick_22">
     <g id="line2d_99">
      <path clip-path="url(#pa6790eb53e)" d="M 57.6 167.704791 
L 414.72 167.704791 
" style="fill:none;stroke:#ffff00;stroke-dasharray:1.85,0.8;stroke-dashoffset:0;stroke-width:0.5;"/>
     </g>
     <g id="line2d_100">
      <g>
       <use style="stroke:#000000;stroke-width:0.6;" x="57.6" xlink:href="#mb03f49944e" y="167.704791"/>
      </g>
     </g>
    </g>
    <g id="ytick_23">
     <g id="line2d_101">
      <path clip-path="url(#pa6790eb53e)" d="M 57.6 159.933723 
L 414.72 159.933723 
" style="fill:none;stroke:#ffff00;stroke-dasharray:1.85,0.8;stroke-dashoffset:0;stroke-width:0.5;"/>
     </g>
     <g id="line2d_102">
      <g>
       <use style="stroke:#000000;stroke-width:0.6;" x="57.6" xlink:href="#mb03f49944e" y="159.933723"/>
      </g>
     </g>
    </g>
    <g id="ytick_24">
     <g id="line2d_103">
      <path clip-path="url(#pa6790eb53e)" d="M 57.6 144.391589 
L 414.72 144.391589 
" style="fill:none;stroke:#ffff00;stroke-dasharray:1.85,0.8;stroke-dashoffset:0;stroke-width:0.5;"/>
     </g>
     <g id="line2d_104">
      <g>
       <use style="stroke:#000000;stroke-width:0.6;" x="57.6" xlink:href="#mb03f49944e" y="144.391589"/>
      </g>
     </g>
    </g>
    <g id="ytick_25">
     <g id="line2d_105">
      <path clip-path="url(#pa6790eb53e)" d="M 57.6 136.620522 
L 414.72 136.620522 
" style="fill:none;stroke:#ffff00;stroke-dasharray:1.85,0.8;stroke-dashoffset:0;stroke-width:0.5;"/>
     </g>
     <g id="line2d_106">
      <g>
       <use style="stroke:#000000;stroke-width:0.6;" x="57.6" xlink:href="#mb03f49944e" y="136.620522"/>
      </g>
     </g>
    </g>
    <g id="ytick_26">
     <g id="line2d_107">
      <path clip-path="url(#pa6790eb53e)" d="M 57.6 128.849455 
L 414.72 128.849455 
" style="fill:none;stroke:#ffff00;stroke-dasharray:1.85,0.8;stroke-dashoffset:0;stroke-width:0.5;"/>
     </g>
     <g id="line2d_108">
      <g>
       <use style="stroke:#000000;stroke-width:0.6;" x="57.6" xlink:href="#mb03f49944e" y="128.849455"/>
      </g>
     </g>
    </g>
    <g id="ytick_27">
     <g id="line2d_109">
      <path clip-path="url(#pa6790eb53e)" d="M 57.6 121.078387 
L 414.72 121.078387 
" style="fill:none;stroke:#ffff00;stroke-dasharray:1.85,0.8;stroke-dashoffset:0;stroke-width:0.5;"/>
     </g>
     <g id="line2d_110">
      <g>
       <use style="stroke:#000000;stroke-width:0.6;" x="57.6" xlink:href="#mb03f49944e" y="121.078387"/>
      </g>
     </g>
    </g>
    <g id="ytick_28">
     <g id="line2d_111">
      <path clip-path="url(#pa6790eb53e)" d="M 57.6 105.536253 
L 414.72 105.536253 
" style="fill:none;stroke:#ffff00;stroke-dasharray:1.85,0.8;stroke-dashoffset:0;stroke-width:0.5;"/>
     </g>
     <g id="line2d_112">
      <g>
       <use style="stroke:#000000;stroke-width:0.6;" x="57.6" xlink:href="#mb03f49944e" y="105.536253"/>
      </g>
     </g>
    </g>
    <g id="ytick_29">
     <g id="line2d_113">
      <path clip-path="url(#pa6790eb53e)" d="M 57.6 97.765186 
L 414.72 97.765186 
" style="fill:none;stroke:#ffff00;stroke-dasharray:1.85,0.8;stroke-dashoffset:0;stroke-width:0.5;"/>
     </g>
     <g id="line2d_114">
      <g>
       <use style="stroke:#000000;stroke-width:0.6;" x="57.6" xlink:href="#mb03f49944e" y="97.765186"/>
      </g>
     </g>
    </g>
    <g id="ytick_30">
     <g id="line2d_115">
      <path clip-path="url(#pa6790eb53e)" d="M 57.6 89.994119 
L 414.72 89.994119 
" style="fill:none;stroke:#ffff00;stroke-dasharray:1.85,0.8;stroke-dashoffset:0;stroke-width:0.5;"/>
     </g>
     <g id="line2d_116">
      <g>
       <use style="stroke:#000000;stroke-width:0.6;" x="57.6" xlink:href="#mb03f49944e" y="89.994119"/>
      </g>
     </g>
    </g>
    <g id="ytick_31">
     <g id="line2d_117">
      <path clip-path="url(#pa6790eb53e)" d="M 57.6 82.223051 
L 414.72 82.223051 
" style="fill:none;stroke:#ffff00;stroke-dasharray:1.85,0.8;stroke-dashoffset:0;stroke-width:0.5;"/>
     </g>
     <g id="line2d_118">
      <g>
       <use style="stroke:#000000;stroke-width:0.6;" x="57.6" xlink:href="#mb03f49944e" y="82.223051"/>
      </g>
     </g>
    </g>
    <g id="ytick_32">
     <g id="line2d_119">
      <path clip-path="url(#pa6790eb53e)" d="M 57.6 66.680917 
L 414.72 66.680917 
" style="fill:none;stroke:#ffff00;stroke-dasharray:1.85,0.8;stroke-dashoffset:0;stroke-width:0.5;"/>
     </g>
     <g id="line2d_120">
      <g>
       <use style="stroke:#000000;stroke-width:0.6;" x="57.6" xlink:href="#mb03f49944e" y="66.680917"/>
      </g>
     </g>
    </g>
    <g id="ytick_33">
     <g id="line2d_121">
      <path clip-path="url(#pa6790eb53e)" d="M 57.6 58.90985 
L 414.72 58.90985 
" style="fill:none;stroke:#ffff00;stroke-dasharray:1.85,0.8;stroke-dashoffset:0;stroke-width:0.5;"/>
     </g>
     <g id="line2d_122">
      <g>
       <use style="stroke:#000000;stroke-width:0.6;" x="57.6" xlink:href="#mb03f49944e" y="58.90985"/>
      </g>
     </g>
    </g>
    <g id="ytick_34">
     <g id="line2d_123">
      <path clip-path="url(#pa6790eb53e)" d="M 57.6 51.138783 
L 414.72 51.138783 
" style="fill:none;stroke:#ffff00;stroke-dasharray:1.85,0.8;stroke-dashoffset:0;stroke-width:0.5;"/>
     </g>
     <g id="line2d_124">
      <g>
       <use style="stroke:#000000;stroke-width:0.6;" x="57.6" xlink:href="#mb03f49944e" y="51.138783"/>
      </g>
     </g>
    </g>
    <g id="ytick_35">
     <g id="line2d_125">
      <path clip-path="url(#pa6790eb53e)" d="M 57.6 43.367715 
L 414.72 43.367715 
" style="fill:none;stroke:#ffff00;stroke-dasharray:1.85,0.8;stroke-dashoffset:0;stroke-width:0.5;"/>
     </g>
     <g id="line2d_126">
      <g>
       <use style="stroke:#000000;stroke-width:0.6;" x="57.6" xlink:href="#mb03f49944e" y="43.367715"/>
      </g>
     </g>
    </g>
    <g id="text_16">
     <!-- Напряжение, V -->
     <g transform="translate(28.617187 214.577219)rotate(-90)scale(0.1 -0.1)">
      <defs>
       <path d="M 628 4666 
L 1259 4666 
L 1259 2753 
L 3553 2753 
L 3553 4666 
L 4184 4666 
L 4184 0 
L 3553 0 
L 3553 2222 
L 1259 2222 
L 1259 0 
L 628 0 
L 628 4666 
z
" id="DejaVuSans-41d" transform="scale(0.015625)"/>
       <path d="M 2194 1759 
Q 1497 1759 1228 1600 
Q 959 1441 959 1056 
Q 959 750 1161 570 
Q 1363 391 1709 391 
Q 2188 391 2477 730 
Q 2766 1069 2766 1631 
L 2766 1759 
L 2194 1759 
z
M 3341 1997 
L 3341 0 
L 2766 0 
L 2766 531 
Q 2569 213 2275 61 
Q 1981 -91 1556 -91 
Q 1019 -91 701 211 
Q 384 513 384 1019 
Q 384 1609 779 1909 
Q 1175 2209 1959 2209 
L 2766 2209 
L 2766 2266 
Q 2766 2663 2505 2880 
Q 2244 3097 1772 3097 
Q 1472 3097 1187 3025 
Q 903 2953 641 2809 
L 641 3341 
Q 956 3463 1253 3523 
Q 1550 3584 1831 3584 
Q 2591 3584 2966 3190 
Q 3341 2797 3341 1997 
z
" id="DejaVuSans-430" transform="scale(0.015625)"/>
       <path d="M 3603 3500 
L 3603 0 
L 3025 0 
L 3025 3041 
L 1159 3041 
L 1159 0 
L 581 0 
L 581 3500 
L 3603 3500 
z
" id="DejaVuSans-43f" transform="scale(0.015625)"/>
       <path d="M 2597 3500 
L 3169 3500 
L 3169 1856 
L 4697 3500 
L 5366 3500 
L 4109 2153 
L 5547 0 
L 4931 0 
L 3753 1769 
L 3169 1141 
L 3169 0 
L 2597 0 
L 2597 1141 
L 2013 1769 
L 834 0 
L 219 0 
L 1656 2153 
L 400 3500 
L 1069 3500 
L 2597 1856 
L 2597 3500 
z
" id="DejaVuSans-436" transform="scale(0.015625)"/>
       <path d="M 581 3500 
L 1159 3500 
L 1159 2072 
L 3025 2072 
L 3025 3500 
L 3603 3500 
L 3603 0 
L 3025 0 
L 3025 1613 
L 1159 1613 
L 1159 0 
L 581 0 
L 581 3500 
z
" id="DejaVuSans-43d" transform="scale(0.015625)"/>
       <path d="M 3578 3500 
L 3578 0 
L 3006 0 
L 3006 2809 
L 1319 0 
L 581 0 
L 581 3500 
L 1153 3500 
L 1153 697 
L 2838 3500 
L 3578 3500 
z
" id="DejaVuSans-438" transform="scale(0.015625)"/>
       <path d="M 1831 0 
L 50 4666 
L 709 4666 
L 2188 738 
L 3669 4666 
L 4325 4666 
L 2547 0 
L 1831 0 
z
" id="DejaVuSans-56" transform="scale(0.015625)"/>
      </defs>
      <use xlink:href="#DejaVuSans-41d"/>
      <use x="75.195312" xlink:href="#DejaVuSans-430"/>
      <use x="136.474609" xlink:href="#DejaVuSans-43f"/>
      <use x="201.855469" xlink:href="#DejaVuSans-440"/>
      <use x="265.332031" xlink:href="#DejaVuSans-44f"/>
      <use x="325.488281" xlink:href="#DejaVuSans-436"/>
      <use x="415.576172" xlink:href="#DejaVuSans-435"/>
      <use x="477.099609" xlink:href="#DejaVuSans-43d"/>
      <use x="542.480469" xlink:href="#DejaVuSans-438"/>
      <use x="607.470703" xlink:href="#DejaVuSans-435"/>
      <use x="668.994141" xlink:href="#DejaVuSans-2c"/>
      <use x="700.78125" xlink:href="#DejaVuSans-20"/>
      <use x="732.568359" xlink:href="#DejaVuSans-56"/>
     </g>
    </g>
   </g>
   <g id="line2d_127">
    <path clip-path="url(#pa6790eb53e)" d="M 57.6 307.584 
L 57.827349 307.584 
L 58.054698 306.582261 
L 58.282047 302.575304 
L 58.509396 302.575304 
L 58.736746 299.570087 
L 58.964095 298.568348 
L 59.191444 296.56487 
L 59.418793 293.559652 
L 59.646142 292.557913 
L 59.873491 290.554435 
L 60.10084 286.547478 
L 60.555539 284.544 
L 60.782888 281.538783 
L 61.010237 280.537043 
L 61.237586 276.530087 
L 61.464935 277.531826 
L 61.692284 275.528348 
L 61.919633 272.52313 
L 62.146982 271.521391 
L 62.601681 266.512696 
L 63.056379 264.509217 
L 63.283728 261.504 
L 63.511077 260.502261 
L 63.738426 258.498783 
L 63.965775 257.497043 
L 64.193125 253.490087 
L 64.420474 252.488348 
L 64.647823 252.488348 
L 65.102521 248.481391 
L 65.32987 248.481391 
L 66.239267 240.467478 
L 66.466616 240.467478 
L 66.693965 237.462261 
L 66.921314 236.460522 
L 67.148663 236.460522 
L 67.376012 234.457043 
L 67.603361 233.455304 
L 67.83071 231.451826 
L 68.05806 230.450087 
L 68.285409 228.446609 
L 68.740107 226.44313 
L 69.194805 222.436174 
L 69.422154 222.436174 
L 69.876853 218.429217 
L 70.104202 218.429217 
L 70.331551 215.424 
L 70.5589 215.424 
L 70.786249 212.418783 
L 71.013598 212.418783 
L 71.240947 211.417043 
L 71.468296 209.413565 
L 71.922995 207.410087 
L 72.150344 205.406609 
L 72.377693 205.406609 
L 72.605042 204.40487 
L 72.832391 202.401391 
L 73.05974 201.399652 
L 73.514439 197.392696 
L 73.741788 197.392696 
L 73.969137 196.390957 
L 74.196486 196.390957 
L 74.651184 192.384 
L 74.878533 192.384 
L 75.105882 189.378783 
L 75.333231 190.380522 
L 75.560581 189.378783 
L 75.78793 187.375304 
L 76.015279 187.375304 
L 76.242628 185.371826 
L 76.469977 184.370087 
L 76.697326 184.370087 
L 76.924675 181.36487 
L 77.152024 180.36313 
L 77.379374 180.36313 
L 77.606723 178.359652 
L 77.834072 177.357913 
L 78.061421 177.357913 
L 78.743468 174.352696 
L 78.970817 172.349217 
L 79.198167 173.350957 
L 79.425516 172.349217 
L 79.652865 172.349217 
L 79.880214 169.344 
L 80.107563 169.344 
L 80.334912 167.340522 
L 80.562261 167.340522 
L 81.01696 165.337043 
L 81.244309 165.337043 
L 81.471658 164.335304 
L 81.699007 164.335304 
L 81.926356 161.330087 
L 82.153705 160.328348 
L 82.608403 160.328348 
L 83.5178 156.321391 
L 83.745149 156.321391 
L 83.972498 154.317913 
L 84.199847 153.316174 
L 84.427196 153.316174 
L 84.654545 152.314435 
L 84.881895 152.314435 
L 85.109244 150.310957 
L 85.563942 150.310957 
L 85.791291 148.307478 
L 86.245989 146.304 
L 86.473338 146.304 
L 86.700688 144.300522 
L 86.928037 145.302261 
L 87.155386 144.300522 
L 87.382735 142.297043 
L 87.837433 140.293565 
L 88.064782 142.297043 
L 88.292131 140.293565 
L 88.519481 139.291826 
L 88.74683 140.293565 
L 88.974179 138.290087 
L 89.201528 138.290087 
L 89.656226 136.286609 
L 89.883575 134.28313 
L 90.110924 134.28313 
L 90.338273 136.286609 
L 90.792972 134.28313 
L 91.020321 132.279652 
L 91.24767 131.277913 
L 91.475019 131.277913 
L 91.702368 132.279652 
L 91.929717 130.276174 
L 92.157066 130.276174 
L 92.384416 129.274435 
L 92.611765 129.274435 
L 92.839114 128.272696 
L 93.066463 128.272696 
L 93.293812 126.269217 
L 93.521161 128.272696 
L 93.74851 125.267478 
L 93.975859 126.269217 
L 94.203209 126.269217 
L 94.430558 124.265739 
L 94.657907 123.264 
L 94.885256 124.265739 
L 95.567303 121.260522 
L 95.794652 121.260522 
L 96.022002 120.258783 
L 96.249351 120.258783 
L 96.704049 118.255304 
L 96.931398 119.257043 
L 97.158747 118.255304 
L 97.386096 116.251826 
L 97.613445 117.253565 
L 97.840794 117.253565 
L 98.068144 116.251826 
L 98.295493 116.251826 
L 98.97754 113.246609 
L 99.204889 113.246609 
L 99.432238 112.24487 
L 99.886937 112.24487 
L 100.114286 110.241391 
L 100.341635 111.24313 
L 100.568984 111.24313 
L 100.796333 109.239652 
L 101.023682 108.237913 
L 101.47838 110.241391 
L 101.70573 107.236174 
L 101.933079 108.237913 
L 102.160428 106.234435 
L 102.387777 108.237913 
L 102.615126 106.234435 
L 102.842475 105.232696 
L 103.069824 106.234435 
L 103.297173 106.234435 
L 103.979221 103.229217 
L 104.20657 104.230957 
L 104.661268 102.227478 
L 104.888617 102.227478 
L 105.115966 101.225739 
L 105.343316 102.227478 
L 105.798014 102.227478 
L 106.025363 101.225739 
L 106.252712 102.227478 
L 106.70741 100.224 
L 107.162108 100.224 
L 107.389458 99.222261 
L 107.616807 97.218783 
L 107.844156 98.220522 
L 108.071505 97.218783 
L 108.298854 97.218783 
L 108.526203 96.217043 
L 108.980901 96.217043 
L 109.208251 95.215304 
L 109.4356 96.217043 
L 109.662949 94.213565 
L 109.890298 96.217043 
L 110.117647 94.213565 
L 110.344996 93.211826 
L 110.572345 93.211826 
L 110.799694 94.213565 
L 111.027044 93.211826 
L 111.254393 94.213565 
L 111.481742 93.211826 
L 111.709091 93.211826 
L 111.93644 91.208348 
L 112.163789 92.210087 
L 112.391138 92.210087 
L 112.618487 90.206609 
L 113.073186 92.210087 
L 113.300535 90.206609 
L 113.527884 90.206609 
L 113.755233 89.20487 
L 113.982582 89.20487 
L 114.209931 90.206609 
L 114.43728 88.20313 
L 114.664629 88.20313 
L 114.891979 89.20487 
L 115.346677 87.201391 
L 115.574026 88.20313 
L 115.801375 88.20313 
L 116.028724 87.201391 
L 116.256073 88.20313 
L 116.710772 86.199652 
L 116.938121 86.199652 
L 117.16547 87.201391 
L 117.392819 85.197913 
L 117.620168 86.199652 
L 118.074866 86.199652 
L 118.529565 84.196174 
L 118.984263 84.196174 
L 119.211612 83.194435 
L 119.438961 84.196174 
L 119.66631 83.194435 
L 119.893659 83.194435 
L 120.121008 84.196174 
L 120.348358 82.192696 
L 120.575707 84.196174 
L 120.803056 84.196174 
L 121.030405 81.190957 
L 121.257754 82.192696 
L 121.485103 81.190957 
L 121.712452 81.190957 
L 121.939801 82.192696 
L 122.16715 80.189217 
L 122.3945 80.189217 
L 122.621849 82.192696 
L 122.849198 80.189217 
L 123.076547 81.190957 
L 123.303896 80.189217 
L 123.758594 80.189217 
L 123.985943 79.187478 
L 124.89534 79.187478 
L 125.122689 80.189217 
L 125.350038 79.187478 
L 125.577387 79.187478 
L 126.032086 77.184 
L 126.259435 78.185739 
L 127.168831 78.185739 
L 127.39618 77.184 
L 127.850879 77.184 
L 128.078228 75.180522 
L 128.305577 76.182261 
L 128.532926 78.185739 
L 128.760275 76.182261 
L 129.214973 76.182261 
L 129.442322 75.180522 
L 129.669672 75.180522 
L 129.897021 76.182261 
L 130.12437 74.178783 
L 130.351719 74.178783 
L 130.579068 75.180522 
L 131.033766 75.180522 
L 131.261115 76.182261 
L 131.488464 74.178783 
L 131.715814 75.180522 
L 132.170512 73.177043 
L 132.397861 74.178783 
L 132.62521 74.178783 
L 132.852559 73.177043 
L 133.079908 73.177043 
L 133.307257 74.178783 
L 133.534607 73.177043 
L 133.761956 74.178783 
L 133.989305 72.175304 
L 134.216654 72.175304 
L 134.444003 71.173565 
L 134.671352 72.175304 
L 134.898701 72.175304 
L 135.12605 71.173565 
L 135.3534 72.175304 
L 136.262796 72.175304 
L 136.490145 71.173565 
L 136.717494 69.170087 
L 136.944843 72.175304 
L 137.172193 70.171826 
L 137.626891 70.171826 
L 137.85424 72.175304 
L 138.081589 69.170087 
L 138.308938 70.171826 
L 138.536287 70.171826 
L 138.763636 71.173565 
L 139.445684 68.168348 
L 139.673033 68.168348 
L 139.900382 70.171826 
L 140.127731 70.171826 
L 140.35508 68.168348 
L 140.582429 69.170087 
L 141.491826 69.170087 
L 141.719175 68.168348 
L 141.946524 69.170087 
L 142.173873 68.168348 
L 142.401222 69.170087 
L 142.628571 69.170087 
L 142.855921 68.168348 
L 143.08327 69.170087 
L 143.310619 68.168348 
L 143.992666 68.168348 
L 144.220015 67.166609 
L 144.447364 68.168348 
L 145.356761 68.168348 
L 145.58411 67.166609 
L 145.811459 67.166609 
L 146.038808 66.16487 
L 146.266157 67.166609 
L 146.493506 66.16487 
L 147.175554 66.16487 
L 147.402903 65.16313 
L 147.630252 66.16487 
L 147.857601 66.16487 
L 148.08495 65.16313 
L 148.539649 67.166609 
L 148.766998 65.16313 
L 148.994347 66.16487 
L 149.221696 65.16313 
L 149.676394 67.166609 
L 149.903743 65.16313 
L 150.131092 66.16487 
L 150.358442 66.16487 
L 150.585791 65.16313 
L 150.81314 65.16313 
L 151.040489 64.161391 
L 151.267838 66.16487 
L 151.495187 65.16313 
L 151.722536 65.16313 
L 151.949885 64.161391 
L 152.404584 66.16487 
L 152.631933 64.161391 
L 152.859282 65.16313 
L 153.086631 63.159652 
L 153.31398 64.161391 
L 153.541329 64.161391 
L 153.768678 65.16313 
L 153.996028 63.159652 
L 154.223377 63.159652 
L 154.450726 64.161391 
L 154.678075 64.161391 
L 154.905424 63.159652 
L 155.360122 63.159652 
L 155.587471 64.161391 
L 156.04217 62.157913 
L 156.269519 63.159652 
L 156.496868 63.159652 
L 156.724217 64.161391 
L 156.951566 63.159652 
L 157.178915 64.161391 
L 157.633613 64.161391 
L 157.860963 63.159652 
L 158.088312 64.161391 
L 158.54301 62.157913 
L 158.770359 64.161391 
L 158.997708 63.159652 
L 159.225057 61.156174 
L 159.452406 63.159652 
L 159.679756 61.156174 
L 159.907105 64.161391 
L 160.134454 64.161391 
L 160.361803 63.159652 
L 160.589152 63.159652 
L 160.816501 61.156174 
L 161.271199 61.156174 
L 161.498549 62.157913 
L 161.725898 61.156174 
L 163.089992 61.156174 
L 163.317341 62.157913 
L 163.544691 61.156174 
L 163.77204 61.156174 
L 163.999389 62.157913 
L 164.681436 62.157913 
L 165.136134 60.154435 
L 165.363484 61.156174 
L 165.590833 61.156174 
L 165.818182 62.157913 
L 166.045531 61.156174 
L 166.27288 62.157913 
L 166.500229 62.157913 
L 166.727578 61.156174 
L 167.182277 61.156174 
L 167.636975 59.152696 
L 168.091673 61.156174 
L 168.319022 60.154435 
L 168.77372 62.157913 
L 169.00107 60.154435 
L 169.228419 61.156174 
L 169.455768 59.152696 
L 169.683117 62.157913 
L 170.365164 59.152696 
L 170.819862 61.156174 
L 171.274561 59.152696 
L 171.729259 61.156174 
L 171.956608 60.154435 
L 172.183957 61.156174 
L 172.411306 58.150957 
L 172.638655 60.154435 
L 172.866005 59.152696 
L 173.320703 59.152696 
L 173.548052 60.154435 
L 173.775401 59.152696 
L 174.00275 59.152696 
L 174.230099 60.154435 
L 174.684798 60.154435 
L 174.912147 59.152696 
L 175.139496 60.154435 
L 175.366845 60.154435 
L 175.594194 59.152696 
L 175.821543 59.152696 
L 176.048892 60.154435 
L 176.73094 60.154435 
L 176.958289 59.152696 
L 177.185638 59.152696 
L 177.412987 60.154435 
L 177.640336 60.154435 
L 177.867685 59.152696 
L 178.095034 60.154435 
L 178.322383 59.152696 
L 178.549733 59.152696 
L 178.777082 58.150957 
L 179.004431 59.152696 
L 179.23178 59.152696 
L 179.459129 58.150957 
L 179.686478 59.152696 
L 179.913827 59.152696 
L 180.141176 60.154435 
L 180.595875 58.150957 
L 180.823224 59.152696 
L 181.050573 59.152696 
L 181.277922 57.149217 
L 181.73262 59.152696 
L 182.414668 59.152696 
L 182.869366 57.149217 
L 183.096715 59.152696 
L 183.324064 58.150957 
L 183.778762 58.150957 
L 184.006112 57.149217 
L 184.46081 59.152696 
L 184.688159 59.152696 
L 184.915508 58.150957 
L 185.142857 59.152696 
L 185.597555 57.149217 
L 185.824905 58.150957 
L 186.052254 57.149217 
L 186.279603 58.150957 
L 186.506952 58.150957 
L 186.734301 57.149217 
L 186.96165 58.150957 
L 187.188999 58.150957 
L 187.416348 59.152696 
L 187.871047 57.149217 
L 188.098396 57.149217 
L 188.325745 59.152696 
L 188.553094 57.149217 
L 188.780443 58.150957 
L 189.235141 58.150957 
L 189.46249 57.149217 
L 189.68984 57.149217 
L 189.917189 58.150957 
L 190.144538 58.150957 
L 190.371887 57.149217 
L 190.599236 58.150957 
L 190.826585 58.150957 
L 191.053934 56.147478 
L 191.281283 59.152696 
L 191.735982 57.149217 
L 192.418029 57.149217 
L 192.872727 59.152696 
L 193.100076 57.149217 
L 193.327426 57.149217 
L 193.554775 58.150957 
L 193.782124 57.149217 
L 194.009473 58.150957 
L 194.236822 57.149217 
L 194.464171 57.149217 
L 194.69152 56.147478 
L 194.918869 57.149217 
L 195.146218 57.149217 
L 195.373568 58.150957 
L 195.828266 56.147478 
L 196.055615 56.147478 
L 196.282964 57.149217 
L 196.510313 56.147478 
L 196.737662 58.150957 
L 196.965011 57.149217 
L 197.192361 58.150957 
L 197.647059 58.150957 
L 197.874408 57.149217 
L 198.101757 58.150957 
L 198.329106 58.150957 
L 198.556455 57.149217 
L 198.783804 58.150957 
L 199.011154 58.150957 
L 199.465852 56.147478 
L 199.92055 58.150957 
L 200.147899 58.150957 
L 200.375248 57.149217 
L 200.829947 57.149217 
L 201.057296 56.147478 
L 201.511994 58.150957 
L 201.739343 58.150957 
L 201.966692 57.149217 
L 202.194041 57.149217 
L 202.42139 56.147478 
L 202.648739 56.147478 
L 203.103438 58.150957 
L 203.330787 58.150957 
L 203.558136 57.149217 
L 203.785485 57.149217 
L 204.012834 56.147478 
L 204.240183 57.149217 
L 204.922231 57.149217 
L 205.14958 58.150957 
L 205.376929 57.149217 
L 205.604278 58.150957 
L 205.831627 57.149217 
L 206.058976 57.149217 
L 206.286325 58.150957 
L 207.65042 58.150957 
L 207.877769 56.147478 
L 208.105118 57.149217 
L 208.332468 57.149217 
L 208.559817 58.150957 
L 208.787166 57.149217 
L 209.014515 58.150957 
L 209.241864 58.150957 
L 209.469213 57.149217 
L 209.696562 57.149217 
L 209.923911 58.150957 
L 210.151261 57.149217 
L 210.37861 57.149217 
L 210.605959 58.150957 
L 210.833308 56.147478 
L 211.288006 56.147478 
L 211.515355 58.150957 
L 211.742704 58.150957 
L 211.970053 57.149217 
L 212.87945 57.149217 
L 213.106799 58.150957 
L 213.788846 58.150957 
L 214.016196 56.147478 
L 214.243545 57.149217 
L 214.470894 56.147478 
L 214.698243 56.147478 
L 214.925592 58.150957 
L 215.152941 57.149217 
L 215.38029 58.150957 
L 215.607639 57.149217 
L 215.834989 55.145739 
L 216.062338 56.147478 
L 216.289687 58.150957 
L 216.744385 56.147478 
L 216.971734 56.147478 
L 217.199083 57.149217 
L 217.426432 55.145739 
L 217.653782 57.149217 
L 218.10848 57.149217 
L 218.335829 56.147478 
L 218.563178 57.149217 
L 218.790527 56.147478 
L 219.017876 56.147478 
L 219.245225 57.149217 
L 219.472574 57.149217 
L 219.699924 56.147478 
L 219.927273 56.147478 
L 220.154622 57.149217 
L 220.381971 55.145739 
L 220.60932 55.145739 
L 220.836669 57.149217 
L 221.064018 56.147478 
L 221.291367 57.149217 
L 221.518717 55.145739 
L 221.746066 56.147478 
L 221.973415 55.145739 
L 222.200764 56.147478 
L 223.11016 56.147478 
L 223.33751 55.145739 
L 223.564859 57.149217 
L 223.792208 55.145739 
L 224.019557 57.149217 
L 224.246906 56.147478 
L 224.474255 57.149217 
L 224.701604 57.149217 
L 225.156303 55.145739 
L 225.383652 57.149217 
L 225.611001 55.145739 
L 225.83835 57.149217 
L 226.065699 55.145739 
L 226.520397 57.149217 
L 226.747746 55.145739 
L 226.975095 56.147478 
L 227.202445 55.145739 
L 227.429794 56.147478 
L 227.657143 56.147478 
L 228.111841 58.150957 
L 228.33919 56.147478 
L 228.566539 57.149217 
L 229.021238 55.145739 
L 229.248587 55.145739 
L 229.475936 57.149217 
L 229.703285 56.147478 
L 230.157983 56.147478 
L 230.385332 57.149217 
L 230.612681 56.147478 
L 231.06738 56.147478 
L 231.294729 57.149217 
L 231.522078 56.147478 
L 231.749427 57.149217 
L 231.976776 55.145739 
L 232.204125 57.149217 
L 232.658824 55.145739 
L 232.886173 55.145739 
L 233.113522 57.149217 
L 233.340871 56.147478 
L 233.56822 57.149217 
L 234.022918 55.145739 
L 234.477617 57.149217 
L 234.932315 57.149217 
L 235.159664 56.147478 
L 235.387013 57.149217 
L 235.614362 56.147478 
L 235.841711 57.149217 
L 236.06906 56.147478 
L 236.751108 56.147478 
L 236.978457 55.145739 
L 237.205806 56.147478 
L 237.433155 56.147478 
L 237.660504 55.145739 
L 237.887853 56.147478 
L 238.115202 54.144 
L 238.569901 58.150957 
L 238.79725 59.152696 
L 239.024599 62.157913 
L 239.251948 63.159652 
L 239.479297 65.16313 
L 239.933995 70.171826 
L 240.161345 71.173565 
L 240.388694 73.177043 
L 240.843392 78.185739 
L 241.070741 79.187478 
L 241.525439 83.194435 
L 241.752788 86.199652 
L 241.980138 87.201391 
L 242.207487 87.201391 
L 242.434836 89.20487 
L 242.662185 92.210087 
L 242.889534 93.211826 
L 243.344232 97.218783 
L 243.79893 99.222261 
L 244.480978 105.232696 
L 244.708327 105.232696 
L 245.163025 110.241391 
L 245.390374 111.24313 
L 245.617723 113.246609 
L 245.845073 113.246609 
L 246.072422 115.250087 
L 246.299771 115.250087 
L 246.52712 119.257043 
L 246.754469 119.257043 
L 246.981818 123.264 
L 247.209167 123.264 
L 247.436516 124.265739 
L 247.663866 126.269217 
L 247.891215 127.270957 
L 248.118564 130.276174 
L 248.345913 130.276174 
L 248.573262 132.279652 
L 248.800611 133.281391 
L 249.02796 135.28487 
L 249.482659 137.288348 
L 249.710008 140.293565 
L 249.937357 139.291826 
L 250.392055 143.298783 
L 250.846753 145.302261 
L 251.074102 145.302261 
L 251.301451 147.305739 
L 251.528801 150.310957 
L 251.983499 152.314435 
L 252.210848 152.314435 
L 252.438197 155.319652 
L 252.665546 155.319652 
L 252.892895 156.321391 
L 253.120244 158.32487 
L 253.347594 161.330087 
L 253.574943 159.326609 
L 253.802292 162.331826 
L 254.029641 163.333565 
L 254.25699 163.333565 
L 254.484339 164.335304 
L 254.711688 167.340522 
L 255.166387 169.344 
L 255.393736 169.344 
L 255.848434 171.347478 
L 256.075783 171.347478 
L 256.75783 177.357913 
L 256.98518 177.357913 
L 257.439878 179.361391 
L 257.667227 178.359652 
L 257.894576 181.36487 
L 258.349274 183.368348 
L 258.576623 185.371826 
L 258.803972 185.371826 
L 259.258671 187.375304 
L 259.48602 187.375304 
L 259.713369 190.380522 
L 259.940718 189.378783 
L 260.168067 191.382261 
L 260.395416 192.384 
L 260.622765 192.384 
L 260.850115 194.387478 
L 261.077464 195.389217 
L 261.304813 195.389217 
L 261.532162 196.390957 
L 261.759511 196.390957 
L 261.98686 197.392696 
L 262.214209 199.396174 
L 262.668908 199.396174 
L 262.896257 201.399652 
L 263.123606 201.399652 
L 263.350955 203.40313 
L 263.578304 204.40487 
L 263.805653 204.40487 
L 264.033002 207.410087 
L 264.260351 207.410087 
L 264.487701 208.411826 
L 264.942399 208.411826 
L 265.169748 210.415304 
L 265.397097 209.413565 
L 265.624446 211.417043 
L 265.851795 211.417043 
L 266.079144 213.420522 
L 266.306494 213.420522 
L 266.761192 215.424 
L 266.988541 217.427478 
L 267.21589 216.425739 
L 267.443239 218.429217 
L 267.670588 217.427478 
L 268.125286 219.430957 
L 268.352636 219.430957 
L 269.034683 222.436174 
L 269.262032 222.436174 
L 269.489381 224.439652 
L 269.71673 225.441391 
L 269.944079 224.439652 
L 270.171429 225.441391 
L 270.398778 225.441391 
L 270.626127 227.44487 
L 270.853476 227.44487 
L 271.080825 228.446609 
L 271.308174 228.446609 
L 271.535523 227.44487 
L 271.762872 229.448348 
L 272.217571 231.451826 
L 272.672269 231.451826 
L 272.899618 233.455304 
L 273.126967 232.453565 
L 273.354316 234.457043 
L 273.809015 234.457043 
L 274.036364 237.462261 
L 274.263713 236.460522 
L 274.94576 236.460522 
L 275.173109 237.462261 
L 275.400458 237.462261 
L 275.627807 240.467478 
L 276.309855 240.467478 
L 276.537204 242.470957 
L 276.764553 242.470957 
L 276.991902 241.469217 
L 277.219251 243.472696 
L 277.67395 243.472696 
L 277.901299 244.474435 
L 278.128648 244.474435 
L 278.583346 246.477913 
L 278.810695 246.477913 
L 279.492743 249.48313 
L 279.720092 248.481391 
L 279.947441 250.48487 
L 280.17479 248.481391 
L 280.402139 249.48313 
L 280.629488 249.48313 
L 281.311536 252.488348 
L 281.538885 251.486609 
L 281.993583 251.486609 
L 282.220932 253.490087 
L 282.448281 252.488348 
L 282.67563 254.491826 
L 282.902979 255.493565 
L 284.267074 255.493565 
L 284.494423 258.498783 
L 284.721772 257.497043 
L 284.949121 258.498783 
L 285.40382 258.498783 
L 285.631169 259.500522 
L 286.085867 259.500522 
L 286.313216 260.502261 
L 286.540565 259.500522 
L 286.767914 261.504 
L 286.995264 261.504 
L 287.222613 262.505739 
L 287.449962 261.504 
L 287.677311 261.504 
L 287.90466 262.505739 
L 288.132009 264.509217 
L 288.359358 264.509217 
L 288.586707 263.507478 
L 288.814057 263.507478 
L 289.041406 264.509217 
L 289.268755 264.509217 
L 289.496104 265.510957 
L 289.723453 264.509217 
L 289.950802 266.512696 
L 290.178151 267.514435 
L 290.4055 266.512696 
L 290.860199 266.512696 
L 291.087548 267.514435 
L 291.542246 267.514435 
L 291.769595 269.517913 
L 291.996944 269.517913 
L 292.224293 268.516174 
L 292.451642 268.516174 
L 292.678992 270.519652 
L 292.906341 268.516174 
L 293.13369 269.517913 
L 293.361039 269.517913 
L 293.815737 271.521391 
L 294.043086 270.519652 
L 294.270435 271.521391 
L 294.497785 271.521391 
L 294.725134 273.52487 
L 294.952483 271.521391 
L 295.179832 272.52313 
L 295.407181 272.52313 
L 295.63453 273.52487 
L 295.861879 272.52313 
L 296.089228 273.52487 
L 296.316578 273.52487 
L 296.543927 274.526609 
L 296.771276 276.530087 
L 297.225974 274.526609 
L 297.680672 274.526609 
L 298.135371 276.530087 
L 298.36272 275.528348 
L 298.590069 276.530087 
L 298.817418 275.528348 
L 299.044767 277.531826 
L 299.272116 276.530087 
L 299.499465 276.530087 
L 299.726814 277.531826 
L 300.181513 277.531826 
L 300.408862 278.533565 
L 300.636211 277.531826 
L 300.86356 278.533565 
L 301.090909 278.533565 
L 301.318258 279.535304 
L 301.545607 278.533565 
L 301.772956 278.533565 
L 302.000306 280.537043 
L 302.227655 279.535304 
L 302.455004 280.537043 
L 302.682353 279.535304 
L 302.909702 280.537043 
L 303.137051 279.535304 
L 303.3644 281.538783 
L 303.591749 281.538783 
L 303.819099 280.537043 
L 304.273797 282.540522 
L 304.501146 281.538783 
L 304.728495 282.540522 
L 305.183193 282.540522 
L 305.410542 281.538783 
L 305.865241 283.542261 
L 306.09259 282.540522 
L 306.319939 284.544 
L 306.774637 284.544 
L 307.001986 283.542261 
L 307.229335 283.542261 
L 307.684034 285.545739 
L 307.911383 283.542261 
L 308.366081 285.545739 
L 308.59343 285.545739 
L 308.820779 286.547478 
L 309.048128 285.545739 
L 309.275477 285.545739 
L 309.502827 287.549217 
L 309.730176 285.545739 
L 310.184874 287.549217 
L 310.866921 287.549217 
L 311.09427 286.547478 
L 311.548969 288.550957 
L 311.776318 286.547478 
L 312.003667 287.549217 
L 312.458365 287.549217 
L 312.685714 289.552696 
L 313.140413 287.549217 
L 313.367762 288.550957 
L 313.595111 288.550957 
L 313.82246 289.552696 
L 314.959206 289.552696 
L 315.186555 290.554435 
L 315.413904 288.550957 
L 315.868602 290.554435 
L 316.095951 290.554435 
L 316.3233 289.552696 
L 316.777998 291.556174 
L 317.005348 290.554435 
L 317.232697 292.557913 
L 317.460046 292.557913 
L 317.687395 291.556174 
L 317.914744 292.557913 
L 318.824141 292.557913 
L 319.05149 291.556174 
L 319.278839 292.557913 
L 319.960886 292.557913 
L 320.188235 291.556174 
L 320.642934 293.559652 
L 320.870283 293.559652 
L 321.324981 291.556174 
L 321.55233 292.557913 
L 322.007028 292.557913 
L 322.234377 293.559652 
L 322.689076 293.559652 
L 322.916425 294.561391 
L 323.143774 293.559652 
L 323.371123 294.561391 
L 323.598472 293.559652 
L 323.825821 294.561391 
L 324.280519 294.561391 
L 324.507869 295.56313 
L 324.735218 294.561391 
L 324.962567 294.561391 
L 325.189916 296.56487 
L 325.644614 294.561391 
L 326.554011 294.561391 
L 326.78136 296.56487 
L 327.008709 296.56487 
L 327.236058 294.561391 
L 327.690756 296.56487 
L 327.918105 295.56313 
L 328.145455 295.56313 
L 328.372804 296.56487 
L 328.827502 296.56487 
L 329.054851 297.566609 
L 329.2822 296.56487 
L 329.509549 297.566609 
L 329.736898 297.566609 
L 329.964248 296.56487 
L 330.191597 298.568348 
L 330.418946 296.56487 
L 330.646295 296.56487 
L 330.873644 297.566609 
L 331.100993 297.566609 
L 331.328342 296.56487 
L 331.555691 297.566609 
L 331.78304 297.566609 
L 332.01039 298.568348 
L 332.237739 297.566609 
L 332.465088 298.568348 
L 332.692437 297.566609 
L 332.919786 297.566609 
L 333.147135 298.568348 
L 333.374484 297.566609 
L 334.056532 297.566609 
L 334.283881 298.568348 
L 334.51123 300.571826 
L 334.738579 297.566609 
L 334.965928 300.571826 
L 335.420626 298.568348 
L 335.647976 298.568348 
L 335.875325 297.566609 
L 336.102674 299.570087 
L 336.557372 297.566609 
L 337.01207 299.570087 
L 337.239419 298.568348 
L 337.466769 298.568348 
L 337.694118 297.566609 
L 337.921467 299.570087 
L 338.148816 299.570087 
L 338.376165 300.571826 
L 338.603514 299.570087 
L 338.830863 300.571826 
L 339.058212 298.568348 
L 339.285561 299.570087 
L 339.512911 298.568348 
L 339.74026 299.570087 
L 339.967609 299.570087 
L 340.194958 298.568348 
L 340.422307 299.570087 
L 340.649656 299.570087 
L 340.877005 300.571826 
L 341.104354 300.571826 
L 341.331704 299.570087 
L 341.559053 300.571826 
L 341.786402 299.570087 
L 342.013751 301.573565 
L 342.2411 299.570087 
L 342.468449 299.570087 
L 342.695798 300.571826 
L 342.923147 299.570087 
L 343.150497 300.571826 
L 343.377846 299.570087 
L 343.832544 301.573565 
L 344.059893 300.571826 
L 344.287242 300.571826 
L 344.514591 301.573565 
L 344.96929 301.573565 
L 345.196639 299.570087 
L 345.423988 301.573565 
L 345.651337 302.575304 
L 345.878686 300.571826 
L 346.106035 302.575304 
L 346.333384 299.570087 
L 346.560733 301.573565 
L 346.788083 302.575304 
L 347.242781 302.575304 
L 347.47013 300.571826 
L 347.697479 300.571826 
L 347.924828 301.573565 
L 348.152177 301.573565 
L 348.379526 302.575304 
L 349.061574 302.575304 
L 349.288923 301.573565 
L 349.516272 303.577043 
L 349.743621 301.573565 
L 349.97097 302.575304 
L 351.335065 302.575304 
L 351.562414 303.577043 
L 351.789763 301.573565 
L 352.244461 301.573565 
L 352.471811 303.577043 
L 352.69916 302.575304 
L 353.153858 302.575304 
L 353.381207 304.578783 
L 353.608556 303.577043 
L 353.835905 304.578783 
L 354.063254 303.577043 
L 354.517953 303.577043 
L 354.745302 302.575304 
L 354.972651 303.577043 
L 355.2 301.573565 
L 355.427349 302.575304 
L 355.654698 301.573565 
L 355.882047 303.577043 
L 356.109396 304.578783 
L 356.336746 302.575304 
L 356.564095 303.577043 
L 356.791444 302.575304 
L 357.018793 302.575304 
L 357.246142 301.573565 
L 357.473491 303.577043 
L 357.70084 302.575304 
L 357.928189 302.575304 
L 358.155539 303.577043 
L 358.382888 302.575304 
L 358.610237 302.575304 
L 358.837586 303.577043 
L 359.064935 303.577043 
L 359.292284 302.575304 
L 359.519633 304.578783 
L 359.974332 302.575304 
L 360.42903 304.578783 
L 360.656379 303.577043 
L 360.883728 303.577043 
L 361.111077 304.578783 
L 361.338426 304.578783 
L 361.565775 303.577043 
L 361.793125 304.578783 
L 362.020474 302.575304 
L 362.247823 303.577043 
L 362.92987 303.577043 
L 363.157219 302.575304 
L 363.611917 302.575304 
L 364.066616 304.578783 
L 364.293965 304.578783 
L 364.521314 305.580522 
L 364.748663 304.578783 
L 365.203361 304.578783 
L 365.43071 303.577043 
L 365.65806 305.580522 
L 365.885409 304.578783 
L 366.340107 304.578783 
L 366.567456 303.577043 
L 367.022154 303.577043 
L 367.476853 305.580522 
L 367.704202 304.578783 
L 367.931551 304.578783 
L 368.1589 303.577043 
L 368.386249 306.582261 
L 368.613598 303.577043 
L 369.068296 303.577043 
L 369.295646 304.578783 
L 369.522995 303.577043 
L 369.750344 304.578783 
L 369.977693 304.578783 
L 370.205042 305.580522 
L 370.432391 304.578783 
L 370.65974 304.578783 
L 370.887089 305.580522 
L 371.114439 305.580522 
L 371.341788 304.578783 
L 371.569137 305.580522 
L 371.796486 305.580522 
L 372.023835 303.577043 
L 372.251184 304.578783 
L 372.478533 303.577043 
L 372.705882 304.578783 
L 372.933231 303.577043 
L 373.38793 305.580522 
L 373.615279 304.578783 
L 373.842628 305.580522 
L 374.752024 305.580522 
L 374.979374 306.582261 
L 375.434072 304.578783 
L 375.661421 305.580522 
L 375.88877 304.578783 
L 376.116119 305.580522 
L 376.798167 305.580522 
L 377.025516 306.582261 
L 377.252865 304.578783 
L 377.707563 306.582261 
L 377.934912 304.578783 
L 378.38961 306.582261 
L 378.61696 305.580522 
L 378.844309 305.580522 
L 379.071658 304.578783 
L 379.299007 305.580522 
L 379.526356 305.580522 
L 379.753705 304.578783 
L 379.981054 304.578783 
L 380.208403 305.580522 
L 380.435752 305.580522 
L 380.663102 306.582261 
L 380.890451 305.580522 
L 381.572498 305.580522 
L 381.799847 306.582261 
L 382.027196 306.582261 
L 382.254545 307.584 
L 382.254545 307.584 
" style="fill:none;stroke:#0000ff;stroke-linecap:square;"/>
    <defs>
     <path d="M 0 -3 
L -0.673542 -0.927051 
L -2.85317 -0.927051 
L -1.089814 0.354102 
L -1.763356 2.427051 
L -0 1.145898 
L 1.763356 2.427051 
L 1.089814 0.354102 
L 2.85317 -0.927051 
L 0.673542 -0.927051 
z
" id="m174596ba59" style="stroke:#0000ff;stroke-linejoin:bevel;stroke-width:2;"/>
    </defs>
    <g clip-path="url(#pa6790eb53e)">
     <use style="fill:#0000ff;stroke:#0000ff;stroke-linejoin:bevel;stroke-width:2;" x="57.6" xlink:href="#m174596ba59" y="307.584"/>
     <use style="fill:#0000ff;stroke:#0000ff;stroke-linejoin:bevel;stroke-width:2;" x="68.967456" xlink:href="#m174596ba59" y="224.439652"/>
     <use style="fill:#0000ff;stroke:#0000ff;stroke-linejoin:bevel;stroke-width:2;" x="80.334912" xlink:href="#m174596ba59" y="167.340522"/>
     <use style="fill:#0000ff;stroke:#0000ff;stroke-linejoin:bevel;stroke-width:2;" x="91.702368" xlink:href="#m174596ba59" y="132.279652"/>
     <use style="fill:#0000ff;stroke:#0000ff;stroke-linejoin:bevel;stroke-width:2;" x="103.069824" xlink:href="#m174596ba59" y="106.234435"/>
     <use style="fill:#0000ff;stroke:#0000ff;stroke-linejoin:bevel;stroke-width:2;" x="114.43728" xlink:href="#m174596ba59" y="88.20313"/>
     <use style="fill:#0000ff;stroke:#0000ff;stroke-linejoin:bevel;stroke-width:2;" x="125.804736" xlink:href="#m174596ba59" y="78.185739"/>
     <use style="fill:#0000ff;stroke:#0000ff;stroke-linejoin:bevel;stroke-width:2;" x="137.172193" xlink:href="#m174596ba59" y="70.171826"/>
     <use style="fill:#0000ff;stroke:#0000ff;stroke-linejoin:bevel;stroke-width:2;" x="148.539649" xlink:href="#m174596ba59" y="67.166609"/>
     <use style="fill:#0000ff;stroke:#0000ff;stroke-linejoin:bevel;stroke-width:2;" x="159.907105" xlink:href="#m174596ba59" y="64.161391"/>
     <use style="fill:#0000ff;stroke:#0000ff;stroke-linejoin:bevel;stroke-width:2;" x="171.274561" xlink:href="#m174596ba59" y="59.152696"/>
     <use style="fill:#0000ff;stroke:#0000ff;stroke-linejoin:bevel;stroke-width:2;" x="182.642017" xlink:href="#m174596ba59" y="58.150957"/>
     <use style="fill:#0000ff;stroke:#0000ff;stroke-linejoin:bevel;stroke-width:2;" x="194.009473" xlink:href="#m174596ba59" y="58.150957"/>
     <use style="fill:#0000ff;stroke:#0000ff;stroke-linejoin:bevel;stroke-width:2;" x="205.376929" xlink:href="#m174596ba59" y="57.149217"/>
     <use style="fill:#0000ff;stroke:#0000ff;stroke-linejoin:bevel;stroke-width:2;" x="216.744385" xlink:href="#m174596ba59" y="56.147478"/>
     <use style="fill:#0000ff;stroke:#0000ff;stroke-linejoin:bevel;stroke-width:2;" x="228.111841" xlink:href="#m174596ba59" y="58.150957"/>
     <use style="fill:#0000ff;stroke:#0000ff;stroke-linejoin:bevel;stroke-width:2;" x="239.479297" xlink:href="#m174596ba59" y="65.16313"/>
     <use style="fill:#0000ff;stroke:#0000ff;stroke-linejoin:bevel;stroke-width:2;" x="250.846753" xlink:href="#m174596ba59" y="145.302261"/>
     <use style="fill:#0000ff;stroke:#0000ff;stroke-linejoin:bevel;stroke-width:2;" x="262.214209" xlink:href="#m174596ba59" y="199.396174"/>
     <use style="fill:#0000ff;stroke:#0000ff;stroke-linejoin:bevel;stroke-width:2;" x="273.581665" xlink:href="#m174596ba59" y="234.457043"/>
     <use style="fill:#0000ff;stroke:#0000ff;stroke-linejoin:bevel;stroke-width:2;" x="284.949121" xlink:href="#m174596ba59" y="258.498783"/>
     <use style="fill:#0000ff;stroke:#0000ff;stroke-linejoin:bevel;stroke-width:2;" x="296.316578" xlink:href="#m174596ba59" y="273.52487"/>
     <use style="fill:#0000ff;stroke:#0000ff;stroke-linejoin:bevel;stroke-width:2;" x="307.684034" xlink:href="#m174596ba59" y="285.545739"/>
     <use style="fill:#0000ff;stroke:#0000ff;stroke-linejoin:bevel;stroke-width:2;" x="319.05149" xlink:href="#m174596ba59" y="291.556174"/>
     <use style="fill:#0000ff;stroke:#0000ff;stroke-linejoin:bevel;stroke-width:2;" x="330.418946" xlink:href="#m174596ba59" y="296.56487"/>
     <use style="fill:#0000ff;stroke:#0000ff;stroke-linejoin:bevel;stroke-width:2;" x="341.786402" xlink:href="#m174596ba59" y="299.570087"/>
     <use style="fill:#0000ff;stroke:#0000ff;stroke-linejoin:bevel;stroke-width:2;" x="353.153858" xlink:href="#m174596ba59" y="302.575304"/>
     <use style="fill:#0000ff;stroke:#0000ff;stroke-linejoin:bevel;stroke-width:2;" x="364.521314" xlink:href="#m174596ba59" y="305.580522"/>
     <use style="fill:#0000ff;stroke:#0000ff;stroke-linejoin:bevel;stroke-width:2;" x="375.88877" xlink:href="#m174596ba59" y="304.578783"/>
    </g>
   </g>
   <g id="patch_3">
    <path d="M 57.6 307.584 
L 57.6 41.472 
" style="fill:none;stroke:#000000;stroke-linecap:square;stroke-linejoin:miter;stroke-width:0.8;"/>
   </g>
   <g id="patch_4">
    <path d="M 414.72 307.584 
L 414.72 41.472 
" style="fill:none;stroke:#000000;stroke-linecap:square;stroke-linejoin:miter;stroke-width:0.8;"/>
   </g>
   <g id="patch_5">
    <path d="M 57.6 307.584 
L 414.72 307.584 
" style="fill:none;stroke:#000000;stroke-linecap:square;stroke-linejoin:miter;stroke-width:0.8;"/>
   </g>
   <g id="patch_6">
    <path d="M 57.6 41.472 
L 414.72 41.472 
" style="fill:none;stroke:#000000;stroke-linecap:square;stroke-linejoin:miter;stroke-width:0.8;"/>
   </g>
   <g id="text_17">
    <!-- Время заряда =  68.69 -->
    <g transform="translate(257.332172 113.30732)scale(0.1 -0.1)">
     <defs>
      <path d="M 2206 1888 
Q 2594 1813 2809 1584 
Q 3025 1356 3025 1019 
Q 3025 478 2622 193 
Q 2219 -91 1475 -91 
Q 1225 -91 961 -47 
Q 697 -3 416 84 
L 416 619 
Q 638 503 903 445 
Q 1169 388 1459 388 
Q 1931 388 2195 563 
Q 2459 738 2459 1019 
Q 2459 1294 2225 1461 
Q 1991 1628 1563 1628 
L 1100 1628 
L 1100 2103 
L 1584 2103 
Q 1947 2103 2158 2242 
Q 2369 2381 2369 2600 
Q 2369 2800 2151 2944 
Q 1934 3088 1563 3088 
Q 1341 3088 1089 3047 
Q 838 3006 534 2916 
L 534 3438 
Q 841 3513 1106 3550 
Q 1372 3588 1609 3588 
Q 2222 3588 2576 3342 
Q 2931 3097 2931 2656 
Q 2931 2366 2743 2164 
Q 2556 1963 2206 1888 
z
" id="DejaVuSans-437" transform="scale(0.015625)"/>
      <path d="M 1384 459 
L 3053 459 
L 3053 3041 
L 1844 3041 
L 1844 2603 
Q 1844 1316 1475 628 
L 1384 459 
z
M 550 459 
Q 834 584 959 850 
Q 1266 1509 1266 2838 
L 1266 3500 
L 3631 3500 
L 3631 459 
L 4091 459 
L 4091 -884 
L 3631 -884 
L 3631 0 
L 794 0 
L 794 -884 
L 334 -884 
L 334 459 
L 550 459 
z
" id="DejaVuSans-434" transform="scale(0.015625)"/>
      <path d="M 678 2906 
L 4684 2906 
L 4684 2381 
L 678 2381 
L 678 2906 
z
M 678 1631 
L 4684 1631 
L 4684 1100 
L 678 1100 
L 678 1631 
z
" id="DejaVuSans-3d" transform="scale(0.015625)"/>
      <path d="M 703 97 
L 703 672 
Q 941 559 1184 500 
Q 1428 441 1663 441 
Q 2288 441 2617 861 
Q 2947 1281 2994 2138 
Q 2813 1869 2534 1725 
Q 2256 1581 1919 1581 
Q 1219 1581 811 2004 
Q 403 2428 403 3163 
Q 403 3881 828 4315 
Q 1253 4750 1959 4750 
Q 2769 4750 3195 4129 
Q 3622 3509 3622 2328 
Q 3622 1225 3098 567 
Q 2575 -91 1691 -91 
Q 1453 -91 1209 -44 
Q 966 3 703 97 
z
M 1959 2075 
Q 2384 2075 2632 2365 
Q 2881 2656 2881 3163 
Q 2881 3666 2632 3958 
Q 2384 4250 1959 4250 
Q 1534 4250 1286 3958 
Q 1038 3666 1038 3163 
Q 1038 2656 1286 2365 
Q 1534 2075 1959 2075 
z
" id="DejaVuSans-39" transform="scale(0.015625)"/>
     </defs>
     <use xlink:href="#DejaVuSans-412"/>
     <use x="68.603516" xlink:href="#DejaVuSans-440"/>
     <use x="132.080078" xlink:href="#DejaVuSans-435"/>
     <use x="193.603516" xlink:href="#DejaVuSans-43c"/>
     <use x="269.042969" xlink:href="#DejaVuSans-44f"/>
     <use x="329.199219" xlink:href="#DejaVuSans-20"/>
     <use x="360.986328" xlink:href="#DejaVuSans-437"/>
     <use x="414.160156" xlink:href="#DejaVuSans-430"/>
     <use x="475.439453" xlink:href="#DejaVuSans-440"/>
     <use x="538.916016" xlink:href="#DejaVuSans-44f"/>
     <use x="599.072266" xlink:href="#DejaVuSans-434"/>
     <use x="668.212891" xlink:href="#DejaVuSans-430"/>
     <use x="729.492188" xlink:href="#DejaVuSans-20"/>
     <use x="761.279297" xlink:href="#DejaVuSans-3d"/>
     <use x="845.068359" xlink:href="#DejaVuSans-20"/>
     <use x="876.855469" xlink:href="#DejaVuSans-20"/>
     <use x="908.642578" xlink:href="#DejaVuSans-36"/>
     <use x="972.265625" xlink:href="#DejaVuSans-38"/>
     <use x="1035.888672" xlink:href="#DejaVuSans-2e"/>
     <use x="1067.675781" xlink:href="#DejaVuSans-36"/>
     <use x="1131.298828" xlink:href="#DejaVuSans-39"/>
    </g>
   </g>
   <g id="text_18">
    <!-- Время разряда =  54.85 -->
    <g transform="translate(257.332172 152.162656)scale(0.1 -0.1)">
     <use xlink:href="#DejaVuSans-412"/>
     <use x="68.603516" xlink:href="#DejaVuSans-440"/>
     <use x="132.080078" xlink:href="#DejaVuSans-435"/>
     <use x="193.603516" xlink:href="#DejaVuSans-43c"/>
     <use x="269.042969" xlink:href="#DejaVuSans-44f"/>
     <use x="329.199219" xlink:href="#DejaVuSans-20"/>
     <use x="360.986328" xlink:href="#DejaVuSans-440"/>
     <use x="424.462891" xlink:href="#DejaVuSans-430"/>
     <use x="485.742188" xlink:href="#DejaVuSans-437"/>
     <use x="538.916016" xlink:href="#DejaVuSans-440"/>
     <use x="602.392578" xlink:href="#DejaVuSans-44f"/>
     <use x="662.548828" xlink:href="#DejaVuSans-434"/>
     <use x="731.689453" xlink:href="#DejaVuSans-430"/>
     <use x="792.96875" xlink:href="#DejaVuSans-20"/>
     <use x="824.755859" xlink:href="#DejaVuSans-3d"/>
     <use x="908.544922" xlink:href="#DejaVuSans-20"/>
     <use x="940.332031" xlink:href="#DejaVuSans-20"/>
     <use x="972.119141" xlink:href="#DejaVuSans-35"/>
     <use x="1035.742188" xlink:href="#DejaVuSans-34"/>
     <use x="1099.365234" xlink:href="#DejaVuSans-2e"/>
     <use x="1131.152344" xlink:href="#DejaVuSans-38"/>
     <use x="1194.775391" xlink:href="#DejaVuSans-35"/>
    </g>
   </g>
   <g id="text_19">
    <!-- Процесс зарядки и разрядки конденсатора в RC-цепи -->
    <g transform="translate(64.763438 35.472)scale(0.12 -0.12)">
     <defs>
      <path d="M 4184 4666 
L 4184 0 
L 3553 0 
L 3553 4134 
L 1259 4134 
L 1259 0 
L 628 0 
L 628 4666 
L 4184 4666 
z
" id="DejaVuSans-41f" transform="scale(0.015625)"/>
      <path d="M 1959 3097 
Q 1497 3097 1228 2736 
Q 959 2375 959 1747 
Q 959 1119 1226 758 
Q 1494 397 1959 397 
Q 2419 397 2687 759 
Q 2956 1122 2956 1747 
Q 2956 2369 2687 2733 
Q 2419 3097 1959 3097 
z
M 1959 3584 
Q 2709 3584 3137 3096 
Q 3566 2609 3566 1747 
Q 3566 888 3137 398 
Q 2709 -91 1959 -91 
Q 1206 -91 779 398 
Q 353 888 353 1747 
Q 353 2609 779 3096 
Q 1206 3584 1959 3584 
z
" id="DejaVuSans-43e" transform="scale(0.015625)"/>
      <path d="M 3603 0 
L 581 0 
L 581 3500 
L 1159 3500 
L 1159 459 
L 3025 459 
L 3025 3500 
L 3603 3500 
L 3603 459 
L 4063 459 
L 4063 -884 
L 3603 -884 
L 3603 0 
z
" id="DejaVuSans-446" transform="scale(0.015625)"/>
      <path d="M 581 3500 
L 1153 3500 
L 1153 1856 
L 2775 3500 
L 3481 3500 
L 2144 2147 
L 3653 0 
L 3009 0 
L 1769 1766 
L 1153 1141 
L 1153 0 
L 581 0 
L 581 3500 
z
" id="DejaVuSans-43a" transform="scale(0.015625)"/>
      <path d="M 188 3500 
L 3541 3500 
L 3541 3041 
L 2147 3041 
L 2147 0 
L 1581 0 
L 1581 3041 
L 188 3041 
L 188 3500 
z
" id="DejaVuSans-442" transform="scale(0.015625)"/>
      <path d="M 1156 1613 
L 1156 459 
L 1975 459 
Q 2369 459 2575 607 
Q 2781 756 2781 1038 
Q 2781 1319 2575 1466 
Q 2369 1613 1975 1613 
L 1156 1613 
z
M 1156 3041 
L 1156 2072 
L 1913 2072 
Q 2238 2072 2444 2201 
Q 2650 2331 2650 2563 
Q 2650 2794 2444 2917 
Q 2238 3041 1913 3041 
L 1156 3041 
z
M 581 3500 
L 1950 3500 
Q 2566 3500 2897 3275 
Q 3228 3050 3228 2634 
Q 3228 2313 3059 2123 
Q 2891 1934 2559 1888 
Q 2956 1813 3175 1575 
Q 3394 1338 3394 981 
Q 3394 513 3033 256 
Q 2672 0 2003 0 
L 581 0 
L 581 3500 
z
" id="DejaVuSans-432" transform="scale(0.015625)"/>
      <path d="M 2841 2188 
Q 3044 2119 3236 1894 
Q 3428 1669 3622 1275 
L 4263 0 
L 3584 0 
L 2988 1197 
Q 2756 1666 2539 1819 
Q 2322 1972 1947 1972 
L 1259 1972 
L 1259 0 
L 628 0 
L 628 4666 
L 2053 4666 
Q 2853 4666 3247 4331 
Q 3641 3997 3641 3322 
Q 3641 2881 3436 2590 
Q 3231 2300 2841 2188 
z
M 1259 4147 
L 1259 2491 
L 2053 2491 
Q 2509 2491 2742 2702 
Q 2975 2913 2975 3322 
Q 2975 3731 2742 3939 
Q 2509 4147 2053 4147 
L 1259 4147 
z
" id="DejaVuSans-52" transform="scale(0.015625)"/>
      <path d="M 4122 4306 
L 4122 3641 
Q 3803 3938 3442 4084 
Q 3081 4231 2675 4231 
Q 1875 4231 1450 3742 
Q 1025 3253 1025 2328 
Q 1025 1406 1450 917 
Q 1875 428 2675 428 
Q 3081 428 3442 575 
Q 3803 722 4122 1019 
L 4122 359 
Q 3791 134 3420 21 
Q 3050 -91 2638 -91 
Q 1578 -91 968 557 
Q 359 1206 359 2328 
Q 359 3453 968 4101 
Q 1578 4750 2638 4750 
Q 3056 4750 3426 4639 
Q 3797 4528 4122 4306 
z
" id="DejaVuSans-43" transform="scale(0.015625)"/>
      <path d="M 313 2009 
L 1997 2009 
L 1997 1497 
L 313 1497 
L 313 2009 
z
" id="DejaVuSans-2d" transform="scale(0.015625)"/>
     </defs>
     <use xlink:href="#DejaVuSans-41f"/>
     <use x="75.195312" xlink:href="#DejaVuSans-440"/>
     <use x="138.671875" xlink:href="#DejaVuSans-43e"/>
     <use x="199.853516" xlink:href="#DejaVuSans-446"/>
     <use x="267.919922" xlink:href="#DejaVuSans-435"/>
     <use x="329.443359" xlink:href="#DejaVuSans-441"/>
     <use x="384.423828" xlink:href="#DejaVuSans-441"/>
     <use x="439.404297" xlink:href="#DejaVuSans-20"/>
     <use x="471.191406" xlink:href="#DejaVuSans-437"/>
     <use x="524.365234" xlink:href="#DejaVuSans-430"/>
     <use x="585.644531" xlink:href="#DejaVuSans-440"/>
     <use x="649.121094" xlink:href="#DejaVuSans-44f"/>
     <use x="709.277344" xlink:href="#DejaVuSans-434"/>
     <use x="778.417969" xlink:href="#DejaVuSans-43a"/>
     <use x="838.818359" xlink:href="#DejaVuSans-438"/>
     <use x="903.808594" xlink:href="#DejaVuSans-20"/>
     <use x="935.595703" xlink:href="#DejaVuSans-438"/>
     <use x="1000.585938" xlink:href="#DejaVuSans-20"/>
     <use x="1032.373047" xlink:href="#DejaVuSans-440"/>
     <use x="1095.849609" xlink:href="#DejaVuSans-430"/>
     <use x="1157.128906" xlink:href="#DejaVuSans-437"/>
     <use x="1210.302734" xlink:href="#DejaVuSans-440"/>
     <use x="1273.779297" xlink:href="#DejaVuSans-44f"/>
     <use x="1333.935547" xlink:href="#DejaVuSans-434"/>
     <use x="1403.076172" xlink:href="#DejaVuSans-43a"/>
     <use x="1463.476562" xlink:href="#DejaVuSans-438"/>
     <use x="1528.466797" xlink:href="#DejaVuSans-20"/>
     <use x="1560.253906" xlink:href="#DejaVuSans-43a"/>
     <use x="1620.654297" xlink:href="#DejaVuSans-43e"/>
     <use x="1681.835938" xlink:href="#DejaVuSans-43d"/>
     <use x="1747.216797" xlink:href="#DejaVuSans-434"/>
     <use x="1816.357422" xlink:href="#DejaVuSans-435"/>
     <use x="1877.880859" xlink:href="#DejaVuSans-43d"/>
     <use x="1943.261719" xlink:href="#DejaVuSans-441"/>
     <use x="1998.242188" xlink:href="#DejaVuSans-430"/>
     <use x="2059.521484" xlink:href="#DejaVuSans-442"/>
     <use x="2117.773438" xlink:href="#DejaVuSans-43e"/>
     <use x="2178.955078" xlink:href="#DejaVuSans-440"/>
     <use x="2242.431641" xlink:href="#DejaVuSans-430"/>
     <use x="2303.710938" xlink:href="#DejaVuSans-20"/>
     <use x="2335.498047" xlink:href="#DejaVuSans-432"/>
     <use x="2394.433594" xlink:href="#DejaVuSans-20"/>
     <use x="2426.220703" xlink:href="#DejaVuSans-52"/>
     <use x="2490.703125" xlink:href="#DejaVuSans-43"/>
     <use x="2560.527344" xlink:href="#DejaVuSans-2d"/>
     <use x="2596.611328" xlink:href="#DejaVuSans-446"/>
     <use x="2664.677734" xlink:href="#DejaVuSans-435"/>
     <use x="2726.201172" xlink:href="#DejaVuSans-43f"/>
     <use x="2791.582031" xlink:href="#DejaVuSans-438"/>
    </g>
   </g>
   <g id="legend_1">
    <g id="patch_7">
     <path d="M 286.17 64.150125 
L 407.72 64.150125 
Q 409.72 64.150125 409.72 62.150125 
L 409.72 48.472 
Q 409.72 46.472 407.72 46.472 
L 286.17 46.472 
Q 284.17 46.472 284.17 48.472 
L 284.17 62.150125 
Q 284.17 64.150125 286.17 64.150125 
z
" style="fill:#ffffff;opacity:0.8;stroke:#cccccc;stroke-linejoin:miter;"/>
    </g>
    <g id="line2d_128">
     <path d="M 288.17 54.570438 
L 308.17 54.570438 
" style="fill:none;stroke:#0000ff;stroke-linecap:square;"/>
    </g>
    <g id="line2d_129">
     <g>
      <use style="fill:#0000ff;stroke:#0000ff;stroke-linejoin:bevel;stroke-width:2;" x="298.17" xlink:href="#m174596ba59" y="54.570438"/>
     </g>
    </g>
    <g id="text_20">
     <!-- Зависимость V(t) -->
     <g transform="translate(316.17 58.070438)scale(0.1 -0.1)">
      <defs>
       <path d="M 1828 4750 
Q 2597 4750 3084 4423 
Q 3572 4097 3572 3541 
Q 3572 3153 3350 2886 
Q 3128 2619 2719 2516 
Q 3172 2419 3426 2112 
Q 3681 1806 3681 1356 
Q 3681 638 3126 273 
Q 2572 -91 1828 -91 
Q 1447 -91 1003 12 
Q 559 116 422 203 
L 422 853 
Q 900 575 1164 508 
Q 1428 441 1816 441 
Q 2403 441 2728 666 
Q 3053 891 3053 1356 
Q 3053 1769 2764 2001 
Q 2475 2234 1866 2234 
L 1228 2234 
L 1228 2753 
L 1891 2753 
Q 2450 2753 2697 2939 
Q 2944 3125 2944 3475 
Q 2944 3834 2689 4026 
Q 2434 4219 1816 4219 
Q 1397 4219 1253 4181 
Q 1109 4144 469 3903 
L 469 4519 
Q 822 4644 1190 4697 
Q 1559 4750 1828 4750 
z
" id="DejaVuSans-417" transform="scale(0.015625)"/>
       <path d="M 2781 1038 
Q 2781 1319 2576 1466 
Q 2372 1613 1978 1613 
L 1159 1613 
L 1159 459 
L 1978 459 
Q 2372 459 2576 607 
Q 2781 756 2781 1038 
z
M 581 3500 
L 1159 3500 
L 1159 2072 
L 2003 2072 
Q 2672 2072 3033 1817 
Q 3394 1563 3394 1038 
Q 3394 513 3033 256 
Q 2672 0 2003 0 
L 581 0 
L 581 3500 
z
" id="DejaVuSans-44c" transform="scale(0.015625)"/>
       <path d="M 1984 4856 
Q 1566 4138 1362 3434 
Q 1159 2731 1159 2009 
Q 1159 1288 1364 580 
Q 1569 -128 1984 -844 
L 1484 -844 
Q 1016 -109 783 600 
Q 550 1309 550 2009 
Q 550 2706 781 3412 
Q 1013 4119 1484 4856 
L 1984 4856 
z
" id="DejaVuSans-28" transform="scale(0.015625)"/>
       <path d="M 1172 4494 
L 1172 3500 
L 2356 3500 
L 2356 3053 
L 1172 3053 
L 1172 1153 
Q 1172 725 1289 603 
Q 1406 481 1766 481 
L 2356 481 
L 2356 0 
L 1766 0 
Q 1100 0 847 248 
Q 594 497 594 1153 
L 594 3053 
L 172 3053 
L 172 3500 
L 594 3500 
L 594 4494 
L 1172 4494 
z
" id="DejaVuSans-74" transform="scale(0.015625)"/>
       <path d="M 513 4856 
L 1013 4856 
Q 1481 4119 1714 3412 
Q 1947 2706 1947 2009 
Q 1947 1309 1714 600 
Q 1481 -109 1013 -844 
L 513 -844 
Q 928 -128 1133 580 
Q 1338 1288 1338 2009 
Q 1338 2731 1133 3434 
Q 928 4138 513 4856 
z
" id="DejaVuSans-29" transform="scale(0.015625)"/>
      </defs>
      <use xlink:href="#DejaVuSans-417"/>
      <use x="64.111328" xlink:href="#DejaVuSans-430"/>
      <use x="125.390625" xlink:href="#DejaVuSans-432"/>
      <use x="184.326172" xlink:href="#DejaVuSans-438"/>
      <use x="249.316406" xlink:href="#DejaVuSans-441"/>
      <use x="304.296875" xlink:href="#DejaVuSans-438"/>
      <use x="369.287109" xlink:href="#DejaVuSans-43c"/>
      <use x="444.726562" xlink:href="#DejaVuSans-43e"/>
      <use x="505.908203" xlink:href="#DejaVuSans-441"/>
      <use x="560.888672" xlink:href="#DejaVuSans-442"/>
      <use x="619.140625" xlink:href="#DejaVuSans-44c"/>
      <use x="678.076172" xlink:href="#DejaVuSans-20"/>
      <use x="709.863281" xlink:href="#DejaVuSans-56"/>
      <use x="778.271484" xlink:href="#DejaVuSans-28"/>
      <use x="817.285156" xlink:href="#DejaVuSans-74"/>
      <use x="856.494141" xlink:href="#DejaVuSans-29"/>
     </g>
    </g>
   </g>
  </g>
 </g>
 <defs>
  <clipPath id="pa6790eb53e">
   <rect height="266.112" width="357.12" x="57.6" y="41.472"/>
  </clipPath>
 </defs>
</svg>
